<svg width="48" height="14" viewBox="0 0 48 14" fill="none" xmlns="http://www.w3.org/2000/svg">
<rect width="48" height="14" fill="#6B6B6B"/>
<g id="Home" clip-path="url(#clip0_0_1)">
<rect width="1440" height="6258" transform="translate(-933 -2637)" fill="white"/>
<g id="Section">
<g id="div.card">
<rect x="-496.95" y="-65.55" width="569" height="108" rx="15.5" fill="#092370"/>
<rect x="-496.95" y="-65.55" width="569" height="108" rx="15.5" stroke="#E6E6E6"/>
<g id="div.dt1-card-img">
<g id="span.h2d-2e171618">
<g id="dt-demo-icon.svg" clip-path="url(#clip1_0_1)">
<g id="dt-demo-icon.svg fill" clip-path="url(#clip2_0_1)">
<g id="dt-demo-icon.svg_2" clip-path="url(#clip3_0_1)">
<g id="Clip path group">
<mask id="mask0_0_1" style="mask-type:luminance" maskUnits="userSpaceOnUse" x="0" y="0" width="48" height="14">
<g id="clip0_5319_21330">
<path id="Vector" d="M47.5355 0.858643H0.174438V13.5615H47.5355V0.858643Z" fill="white"/>
</g>
</mask>
<g mask="url(#mask0_0_1)">
<g id="Group">
<path id="Vector_2" d="M26.8781 7.14045C26.8781 7.6754 26.789 8.16661 26.6107 8.61409C26.4324 9.06158 26.1817 9.44681 25.8587 9.76978C25.5357 10.0928 25.1471 10.3434 24.6929 10.5218C24.2387 10.7 23.7341 10.7892 23.1789 10.7892H20.3982V3.4917H23.1789C23.7341 3.4917 24.2387 3.58254 24.6929 3.76422C25.1471 3.94254 25.5357 4.19319 25.8587 4.51617C26.1817 4.8358 26.4324 5.21935 26.6107 5.66682C26.789 6.11429 26.8781 6.6055 26.8781 7.14045ZM25.4852 7.14045C25.4852 6.74008 25.4315 6.38177 25.3237 6.06551C25.2195 5.74588 25.0664 5.47673 24.8645 5.25804C24.666 5.03598 24.4238 4.86608 24.1378 4.74832C23.8552 4.63057 23.5356 4.57169 23.1789 4.57169H21.7608V9.70921H23.1789C23.5356 9.70921 23.8552 9.65031 24.1378 9.53259C24.4238 9.4148 24.666 9.24659 24.8645 9.02789C25.0664 8.80583 25.2195 8.53671 25.3237 8.22046C25.4315 7.90085 25.4852 7.54081 25.4852 7.14045ZM31.1467 7.60474C31.1467 7.44325 31.1231 7.29185 31.0761 7.15054C31.0323 7.00587 30.965 6.8797 30.8742 6.77204C30.7833 6.66437 30.6672 6.58027 30.526 6.51971C30.388 6.45578 30.2265 6.42382 30.0414 6.42382C29.6815 6.42382 29.3972 6.52644 29.1886 6.73167C28.9833 6.9369 28.8522 7.22793 28.7949 7.60474H31.1467ZM28.7697 8.35666C28.7899 8.6225 28.837 8.85296 28.911 9.04806C28.985 9.23987 29.0826 9.39968 29.2037 9.52755C29.3248 9.65199 29.4678 9.74618 29.6327 9.81011C29.8009 9.87069 29.9859 9.90102 30.1878 9.90102C30.3897 9.90102 30.563 9.87741 30.7076 9.83036C30.8557 9.78323 30.9835 9.73105 31.0912 9.67391C31.2022 9.6167 31.2981 9.56452 31.3789 9.51747C31.463 9.47034 31.5437 9.44681 31.6211 9.44681C31.7254 9.44681 31.8027 9.48546 31.8532 9.56284L32.2115 10.0171C32.0736 10.1785 31.9189 10.3148 31.7472 10.4258C31.5756 10.5335 31.3957 10.621 31.2072 10.6883C31.0222 10.7522 30.8321 10.7976 30.637 10.8246C30.4452 10.8514 30.2585 10.8649 30.0768 10.8649C29.7168 10.8649 29.3821 10.806 29.0725 10.6883C28.763 10.5671 28.4938 10.3905 28.265 10.1584C28.0362 9.92286 27.8563 9.6335 27.725 9.29036C27.5938 8.94379 27.5283 8.54343 27.5283 8.08923C27.5283 7.73596 27.5854 7.40456 27.6998 7.09502C27.8142 6.78214 27.9773 6.5113 28.1893 6.28251C28.4047 6.05037 28.6654 5.867 28.9715 5.73242C29.2811 5.59785 29.6293 5.53056 30.0162 5.53056C30.3426 5.53056 30.6437 5.58271 30.9196 5.687C31.1955 5.7913 31.4326 5.94439 31.6312 6.14625C31.8296 6.34476 31.9844 6.59036 32.0955 6.88307C32.2098 7.17241 32.267 7.50381 32.267 7.87725C32.267 8.0657 32.2469 8.1935 32.2065 8.2608C32.1661 8.32473 32.0887 8.35666 31.9743 8.35666H28.7697ZM33.2025 10.7892V5.61131H33.9646C34.126 5.61131 34.232 5.687 34.2825 5.8384L34.3632 6.22195C34.4541 6.12102 34.5482 6.0285 34.6459 5.94439C34.7468 5.86027 34.8527 5.78794 34.9638 5.72738C35.0782 5.66682 35.1993 5.61972 35.3272 5.58607C35.4583 5.54907 35.6013 5.53056 35.7561 5.53056C36.0824 5.53056 36.3499 5.61972 36.5586 5.79803C36.7705 5.97299 36.9286 6.20681 37.0329 6.49952C37.1137 6.32793 37.2146 6.18158 37.3357 6.06046C37.4568 5.93598 37.5897 5.83504 37.7344 5.75766C37.8791 5.68028 38.0322 5.62308 38.1937 5.58607C38.3585 5.54907 38.5234 5.53056 38.6882 5.53056C38.9742 5.53056 39.2282 5.5743 39.4503 5.66177C39.6723 5.74925 39.8591 5.8771 40.0104 6.04532C40.1618 6.21354 40.2763 6.41878 40.3536 6.66101C40.4344 6.90325 40.4748 7.18082 40.4748 7.49371V10.7892H39.2282V7.49371C39.2282 7.164 39.1559 6.91671 39.0112 6.75185C38.8666 6.58363 38.6546 6.49952 38.3753 6.49952C38.2475 6.49952 38.1281 6.52139 38.0171 6.56513C37.9094 6.60886 37.8135 6.67279 37.7294 6.7569C37.6486 6.83765 37.5847 6.94026 37.5376 7.06474C37.4905 7.18923 37.4669 7.33222 37.4669 7.49371V10.7892H36.2154V7.49371C36.2154 7.14717 36.1447 6.89484 36.0034 6.73671C35.8655 6.57858 35.6619 6.49952 35.3927 6.49952C35.2111 6.49952 35.0412 6.54494 34.8831 6.63578C34.7283 6.72325 34.5836 6.84438 34.449 6.99914V10.7892H33.2025ZM43.9508 5.53056C44.3343 5.53056 44.6826 5.5928 44.9955 5.71728C45.3117 5.84177 45.5809 6.01841 45.8029 6.24718C46.0283 6.47597 46.2016 6.75522 46.3227 7.08493C46.4439 7.41465 46.5044 7.78306 46.5044 8.19014C46.5044 8.60065 46.4439 8.97068 46.3227 9.30045C46.2016 9.63014 46.0283 9.9111 45.8029 10.1432C45.5809 10.3754 45.3117 10.5537 44.9955 10.6782C44.6826 10.8026 44.3343 10.8649 43.9508 10.8649C43.5639 10.8649 43.2123 10.8026 42.8961 10.6782C42.5798 10.5537 42.309 10.3754 42.0835 10.1432C41.8615 9.9111 41.6882 9.63014 41.5637 9.30045C41.4426 8.97068 41.3821 8.60065 41.3821 8.19014C41.3821 7.78306 41.4426 7.41465 41.5637 7.08493C41.6882 6.75522 41.8615 6.47597 42.0835 6.24718C42.309 6.01841 42.5798 5.84177 42.8961 5.71728C43.2123 5.5928 43.5639 5.53056 43.9508 5.53056ZM43.9508 9.90606C44.3815 9.90606 44.6994 9.76138 44.9047 9.47202C45.1132 9.18266 45.2176 8.75877 45.2176 8.20022C45.2176 7.64175 45.1132 7.21615 44.9047 6.92344C44.6994 6.63073 44.3815 6.48438 43.9508 6.48438C43.5135 6.48438 43.1887 6.63241 42.9768 6.92849C42.7682 7.2212 42.6639 7.64512 42.6639 8.20022C42.6639 8.75541 42.7682 9.1793 42.9768 9.47202C43.1887 9.76138 43.5135 9.90606 43.9508 9.90606Z" fill="white"/>
<path id="Vector_3" d="M11.1971 10.5646V12.8271C11.1971 12.9385 11.1528 13.0454 11.074 13.1241C10.9952 13.2029 10.8884 13.2472 10.777 13.2472H0.90649C0.795088 13.2472 0.688252 13.2029 0.60948 13.1241C0.530707 13.0454 0.48645 12.9385 0.48645 12.8271V10.5646C0.48645 10.4533 0.530707 10.3465 0.60948 10.2676C0.688252 10.1889 0.795088 10.1447 0.90649 10.1447H10.7801C10.891 10.1454 10.997 10.1901 11.0751 10.2688C11.1532 10.3475 11.1971 10.4538 11.1971 10.5646ZM10.1 11.6936C10.1 11.5821 10.067 11.4731 10.005 11.3804C9.94305 11.2877 9.85498 11.2155 9.752 11.1728C9.64903 11.1301 9.53567 11.119 9.42636 11.1407C9.31697 11.1625 9.21659 11.2162 9.13776 11.295C9.05893 11.3738 9.00523 11.4743 8.98346 11.5836C8.96169 11.6929 8.97284 11.8063 9.01554 11.9092C9.05816 12.0123 9.13043 12.1003 9.22316 12.1622C9.31582 12.2242 9.42483 12.2573 9.53628 12.2573C9.68577 12.2573 9.82916 12.1978 9.93488 12.0921C10.0406 11.9865 10.1 11.8431 10.1 11.6936Z" fill="#82AEFF"/>
<path id="Vector_4" d="M11.1971 6.07836V8.34079C11.1971 8.45224 11.1528 8.55911 11.074 8.63787C10.9952 8.71662 10.8884 8.76085 10.777 8.76085H0.90649C0.795088 8.76085 0.688252 8.71662 0.60948 8.63787C0.530707 8.55911 0.48645 8.45224 0.48645 8.34079V6.07836C0.48645 5.96696 0.530707 5.86013 0.60948 5.78136C0.688252 5.70258 0.795088 5.65833 0.90649 5.65833H10.7801C10.891 5.65914 10.997 5.70376 11.0751 5.78244C11.1532 5.86113 11.1971 5.96749 11.1971 6.07836ZM10.1 7.20959C10.1 7.09811 10.067 6.98913 10.005 6.89644C9.94305 6.80375 9.85498 6.7315 9.752 6.68883C9.64903 6.64617 9.53567 6.635 9.42636 6.65675C9.31697 6.6785 9.21659 6.73219 9.13776 6.81103C9.05893 6.88985 9.00523 6.99029 8.98346 7.09963C8.96169 7.20897 8.97284 7.32231 9.01554 7.42531C9.05816 7.5283 9.13043 7.61634 9.22316 7.67828C9.31582 7.74021 9.42483 7.77327 9.53628 7.77327C9.68577 7.77327 9.82916 7.71389 9.93488 7.60818C10.0406 7.50247 10.1 7.35909 10.1 7.20959Z" fill="#82AEFF"/>
<path id="Vector_5" d="M11.1971 1.59167V3.85491C11.1971 3.96631 11.1528 4.07315 11.074 4.15193C10.9952 4.2307 10.8884 4.27495 10.777 4.27495H0.90649C0.795088 4.27495 0.688252 4.2307 0.60948 4.15193C0.530707 4.07315 0.48645 3.96631 0.48645 3.85491V1.59167C0.48645 1.48027 0.530707 1.37343 0.60948 1.29466C0.688252 1.21589 0.795088 1.17163 0.90649 1.17163H10.7801C10.891 1.17246 10.997 1.21707 11.0751 1.29576C11.1532 1.37444 11.1971 1.48081 11.1971 1.59167ZM10.1 2.72291C10.1 2.61142 10.067 2.50244 10.005 2.40974C9.94305 2.31704 9.85498 2.2448 9.752 2.20213C9.64903 2.15947 9.53567 2.14831 9.42636 2.17006C9.31697 2.19181 9.21659 2.24549 9.13776 2.32432C9.05893 2.40316 9.00523 2.50359 8.98346 2.61294C8.96169 2.72228 8.97284 2.83562 9.01554 2.93861C9.05816 3.04161 9.13043 3.12965 9.22316 3.19158C9.31582 3.25352 9.42483 3.28658 9.53628 3.28658C9.68577 3.28658 9.82916 3.22719 9.93488 3.12148C10.0406 3.01577 10.1 2.8724 10.1 2.72291Z" fill="#82AEFF"/>
<path id="Vector_6" d="M9.53132 3.28738C9.84261 3.28738 10.095 3.03502 10.095 2.72371C10.095 2.4124 9.84261 2.16003 9.53132 2.16003C9.22004 2.16003 8.96765 2.4124 8.96765 2.72371C8.96765 3.03502 9.22004 3.28738 9.53132 3.28738Z" fill="#43D177"/>
<path id="Vector_7" d="M9.53132 7.77408C9.84261 7.77408 10.095 7.52172 10.095 7.2104C10.095 6.89909 9.84261 6.64673 9.53132 6.64673C9.22004 6.64673 8.96765 6.89909 8.96765 7.2104C8.96765 7.52172 9.22004 7.77408 9.53132 7.77408Z" fill="#43D177"/>
<path id="Vector_8" d="M9.53132 12.2604C9.84261 12.2604 10.095 12.008 10.095 11.6967C10.095 11.3854 9.84261 11.1331 9.53132 11.1331C9.22004 11.1331 8.96765 11.3854 8.96765 11.6967C8.96765 12.008 9.22004 12.2604 9.53132 12.2604Z" fill="#43D177"/>
<path id="Vector_9" d="M9.53843 3.60019C9.71183 3.60019 9.88134 3.54878 10.0255 3.45246C10.1696 3.35614 10.282 3.21924 10.3483 3.05906C10.4147 2.89889 10.432 2.72265 10.3982 2.5526C10.3644 2.38257 10.2809 2.22638 10.1583 2.10379C10.0357 1.9812 9.8795 1.89771 9.70946 1.86389C9.53942 1.83006 9.36319 1.84743 9.203 1.91377C9.04282 1.98012 8.90593 2.09247 8.8096 2.23662C8.71328 2.38077 8.66187 2.55024 8.66187 2.72362C8.66232 2.95597 8.75483 3.1787 8.91907 3.34299C9.08338 3.50729 9.30613 3.59977 9.53843 3.60019ZM9.53843 2.47283C9.58808 2.47283 9.63659 2.48754 9.67784 2.5151C9.71901 2.54265 9.75117 2.58182 9.77019 2.62765C9.78914 2.67347 9.7941 2.72389 9.7844 2.77254C9.77478 2.82119 9.75087 2.86587 9.7158 2.90095C9.68074 2.93602 9.63605 2.9599 9.58739 2.96957C9.53873 2.97925 9.48832 2.97429 9.44248 2.9553C9.39665 2.93633 9.35754 2.90418 9.32996 2.86294C9.30239 2.8217 9.28772 2.77322 9.28772 2.72362C9.28772 2.6571 9.31407 2.59332 9.36113 2.54629C9.40819 2.49925 9.47197 2.47283 9.53843 2.47283Z" fill="white"/>
<path id="Vector_10" d="M7.44958 3.03648H7.88826C7.97137 3.03648 8.05104 3.00347 8.10978 2.94472C8.16853 2.88597 8.20153 2.80628 8.20153 2.72319C8.20153 2.6401 8.16853 2.56042 8.10978 2.50167C8.05104 2.44292 7.97137 2.40991 7.88826 2.40991H7.44958C7.36649 2.40991 7.28681 2.44292 7.22806 2.50167C7.16931 2.56042 7.13629 2.6401 7.13629 2.72319C7.13629 2.80628 7.16931 2.88597 7.22806 2.94472C7.28681 3.00347 7.36649 3.03648 7.44958 3.03648Z" fill="white"/>
<path id="Vector_11" d="M4.98135 2.40991H1.58067C1.49759 2.40991 1.4179 2.44292 1.35915 2.50167C1.3004 2.56042 1.2674 2.6401 1.2674 2.72319C1.2674 2.80628 1.3004 2.88597 1.35915 2.94472C1.4179 3.00347 1.49759 3.03648 1.58067 3.03648H4.98135C5.06444 3.03648 5.14413 3.00347 5.20288 2.94472C5.26163 2.88597 5.29464 2.80628 5.29464 2.72319C5.29464 2.6401 5.26163 2.56042 5.20288 2.50167C5.14413 2.44292 5.06444 2.40991 4.98135 2.40991Z" fill="white"/>
<path id="Vector_12" d="M9.53843 8.087C9.71183 8.087 9.88134 8.03559 10.0255 7.93926C10.1696 7.84293 10.282 7.70606 10.3483 7.54589C10.4147 7.38572 10.432 7.20946 10.3982 7.03942C10.3644 6.86938 10.2809 6.7132 10.1583 6.59061C10.0357 6.46802 9.8795 6.38453 9.70946 6.3507C9.53942 6.31688 9.36319 6.33425 9.203 6.40059C9.04282 6.46693 8.90593 6.57929 8.8096 6.72343C8.71328 6.86759 8.66187 7.03706 8.66187 7.21044C8.66232 7.44279 8.75483 7.6655 8.91907 7.8298C9.08338 7.99411 9.30613 8.08662 9.53843 8.087ZM9.53843 6.95966C9.58808 6.95966 9.63659 6.97436 9.67784 7.00192C9.71901 7.02947 9.75117 7.06863 9.77019 7.11446C9.78914 7.16029 9.7941 7.2107 9.7844 7.25935C9.77478 7.308 9.75087 7.35269 9.7158 7.38776C9.68074 7.42283 9.63605 7.44671 9.58739 7.45639C9.53873 7.46607 9.48832 7.46111 9.44248 7.44213C9.39665 7.42315 9.35754 7.391 9.32996 7.34976C9.30239 7.30852 9.28772 7.26003 9.28772 7.21044C9.28772 7.14392 9.31407 7.08014 9.36113 7.03311C9.40819 6.98608 9.47197 6.95966 9.53843 6.95966Z" fill="white"/>
<path id="Vector_13" d="M7.44958 7.52354H7.88826C7.97137 7.52354 8.05104 7.49053 8.10978 7.43177C8.16853 7.37302 8.20153 7.29335 8.20153 7.21026C8.20153 7.12717 8.16853 7.04748 8.10978 6.98873C8.05104 6.92998 7.97137 6.89697 7.88826 6.89697H7.44958C7.36649 6.89697 7.28681 6.92998 7.22806 6.98873C7.16931 7.04748 7.13629 7.12717 7.13629 7.21026C7.13629 7.29335 7.16931 7.37302 7.22806 7.43177C7.28681 7.49053 7.36649 7.52354 7.44958 7.52354Z" fill="white"/>
<path id="Vector_14" d="M4.98135 6.89697H1.58067C1.49759 6.89697 1.4179 6.92998 1.35915 6.98873C1.3004 7.04748 1.2674 7.12717 1.2674 7.21026C1.2674 7.29335 1.3004 7.37302 1.35915 7.43177C1.4179 7.49053 1.49759 7.52354 1.58067 7.52354H4.98135C5.06444 7.52354 5.14413 7.49053 5.20288 7.43177C5.26163 7.37302 5.29464 7.29335 5.29464 7.21026C5.29464 7.12717 5.26163 7.04748 5.20288 6.98873C5.14413 6.92998 5.06444 6.89697 4.98135 6.89697Z" fill="white"/>
<path id="Vector_15" d="M0.907372 9.83166C0.713049 9.83181 0.526745 9.90912 0.389337 10.0465C0.25193 10.184 0.174644 10.3703 0.174438 10.5645V12.827C0.174644 13.0214 0.251905 13.2078 0.38929 13.3453C0.526675 13.4829 0.712977 13.5604 0.907372 13.5607H10.7787C10.9731 13.5604 11.1594 13.4829 11.2967 13.3453C11.4342 13.2078 11.5114 13.0214 11.5116 12.827V10.5638C11.5114 10.3694 11.4341 10.1831 11.2967 10.0458C11.1593 9.90835 10.973 9.83105 10.7787 9.83082H6.15592V9.07388H10.7779C10.9723 9.07342 11.1586 8.99597 11.296 8.85847C11.4334 8.72089 11.5106 8.53458 11.5109 8.34017V6.07846C11.5106 5.88407 11.4334 5.69768 11.296 5.56015C11.1586 5.42262 10.9723 5.34516 10.7779 5.34475H6.15592V4.58542H10.7779C10.9722 4.58521 11.1585 4.50793 11.2959 4.37052C11.4333 4.23311 11.5106 4.04681 11.5109 3.85249V1.59235C11.5106 1.39809 11.4335 1.21182 11.2963 1.07432C11.159 0.936807 10.9729 0.859258 10.7787 0.858643H0.907372C0.712977 0.859054 0.526675 0.936511 0.38929 1.07404C0.251905 1.21157 0.174644 1.39796 0.174438 1.59235V3.85482C0.174644 4.04914 0.25193 4.23544 0.389337 4.37285C0.526745 4.51026 0.713049 4.58754 0.907372 4.58775H5.52935V5.34475H0.907372C0.712977 5.34516 0.526675 5.42262 0.38929 5.56015C0.251905 5.69768 0.174644 5.88407 0.174438 6.07846V8.34093C0.174644 8.53534 0.251905 8.72173 0.38929 8.85923C0.526675 8.99673 0.712977 9.07419 0.907372 9.07465H5.52935V9.83166H0.907372ZM0.800228 3.85326V1.59235C0.800228 1.56394 0.811516 1.53668 0.831609 1.51659C0.851702 1.49649 0.878955 1.4852 0.907372 1.4852H10.7787C10.8071 1.4852 10.8344 1.49649 10.8544 1.51659C10.8745 1.53668 10.8858 1.56394 10.8858 1.59235V3.85482C10.8861 3.86908 10.8835 3.88326 10.8784 3.89653C10.8731 3.9098 10.8652 3.92189 10.8553 3.93208C10.8453 3.94228 10.8334 3.95039 10.8202 3.95592C10.8071 3.96145 10.793 3.96429 10.7787 3.96429H0.907372C0.893168 3.96419 0.879127 3.96126 0.866063 3.95569C0.853 3.95011 0.841175 3.942 0.831278 3.93181C0.82138 3.92163 0.813607 3.90957 0.80841 3.89635C0.803212 3.88313 0.800694 3.86902 0.801004 3.85482L0.800228 3.85326ZM0.800228 8.3394V6.07846C0.800228 6.05004 0.811516 6.02279 0.831609 6.0027C0.851702 5.9826 0.878955 5.97132 0.907372 5.97132H10.7787C10.8071 5.97132 10.8344 5.9826 10.8544 6.0027C10.8745 6.02279 10.8858 6.05004 10.8858 6.07846V8.34093C10.8858 8.36935 10.8745 8.39662 10.8544 8.41671C10.8344 8.4368 10.8071 8.4481 10.7787 8.4481H0.907372C0.879089 8.44788 0.852037 8.43649 0.832111 8.4164C0.812185 8.39631 0.801003 8.36919 0.801004 8.34093L0.800228 8.3394ZM10.885 10.5638V12.8263C10.885 12.8547 10.8738 12.8819 10.8537 12.902C10.8336 12.9221 10.8063 12.9334 10.7779 12.9334H0.907372C0.878955 12.9334 0.851702 12.9221 0.831609 12.902C0.811516 12.8819 0.800228 12.8547 0.800228 12.8263V10.5638C0.800228 10.5354 0.811516 10.5081 0.831609 10.488C0.851702 10.4679 0.878955 10.4567 0.907372 10.4567H10.7787C10.8069 10.4568 10.834 10.4682 10.8539 10.4883C10.8738 10.5084 10.885 10.5355 10.885 10.5638Z" fill="white"/>
<path id="Vector_16" d="M9.53843 12.5733C9.71183 12.5733 9.88134 12.5219 10.0255 12.4256C10.1696 12.3293 10.282 12.1923 10.3483 12.0322C10.4147 11.872 10.432 11.6957 10.3982 11.5257C10.3644 11.3557 10.2809 11.1995 10.1583 11.0769C10.0357 10.9543 9.8795 10.8709 9.70946 10.837C9.53942 10.8032 9.36319 10.8205 9.203 10.8869C9.04282 10.9532 8.90593 11.0656 8.8096 11.2098C8.71328 11.3539 8.66187 11.5234 8.66187 11.6967C8.66232 11.9291 8.75483 12.1519 8.91907 12.3161C9.08338 12.4804 9.30613 12.5729 9.53843 12.5733ZM9.53843 11.4459C9.58808 11.4459 9.63659 11.4607 9.67784 11.4882C9.71901 11.5158 9.75117 11.555 9.77019 11.6008C9.78914 11.6466 9.7941 11.697 9.7844 11.7457C9.77478 11.7944 9.75087 11.839 9.7158 11.8741C9.68074 11.9092 9.63605 11.933 9.58739 11.9427C9.53873 11.9524 9.48832 11.9474 9.44248 11.9284C9.39665 11.9095 9.35754 11.8773 9.32996 11.8361C9.30239 11.7948 9.28772 11.7464 9.28772 11.6967C9.28734 11.6637 9.29368 11.6307 9.30613 11.6001C9.31858 11.5694 9.33699 11.5414 9.36029 11.5179C9.38359 11.4944 9.41139 11.4757 9.44195 11.463C9.4725 11.4502 9.50535 11.4437 9.53843 11.4437V11.4459Z" fill="white"/>
<path id="Vector_17" d="M7.44958 12.0104H7.88826C7.97137 12.0104 8.05104 11.9774 8.10978 11.9187C8.16853 11.8598 8.20153 11.7802 8.20153 11.6971C8.20153 11.614 8.16853 11.5344 8.10978 11.4756C8.05104 11.4168 7.97137 11.3838 7.88826 11.3838H7.44958C7.36649 11.3838 7.28681 11.4168 7.22806 11.4756C7.16931 11.5344 7.13629 11.614 7.13629 11.6971C7.13629 11.7802 7.16931 11.8598 7.22806 11.9187C7.28681 11.9774 7.36649 12.0104 7.44958 12.0104Z" fill="white"/>
<path id="Vector_18" d="M4.98135 11.3838H1.58067C1.49759 11.3838 1.4179 11.4168 1.35915 11.4756C1.3004 11.5344 1.2674 11.614 1.2674 11.6971C1.2674 11.7802 1.3004 11.8598 1.35915 11.9187C1.4179 11.9774 1.49759 12.0104 1.58067 12.0104H4.98135C5.06444 12.0104 5.14413 11.9774 5.20288 11.9187C5.26163 11.8598 5.29464 11.7802 5.29464 11.6971C5.29464 11.614 5.26163 11.5344 5.20288 11.4756C5.14413 11.4168 5.06444 11.3838 4.98135 11.3838Z" fill="white"/>
</g>
</g>
</g>
</g>
</g>
</g>
</g>
</g>
</g>
</g>
</g>
<defs>
<clipPath id="clip0_0_1">
<rect width="1440" height="6258" fill="white" transform="translate(-933 -2637)"/>
</clipPath>
<clipPath id="clip1_0_1">
<rect width="47.39" height="13.75" fill="white" transform="translate(0.159973 0.199951)"/>
</clipPath>
<clipPath id="clip2_0_1">
<rect width="47.39" height="13.75" fill="white" transform="translate(0.159973 0.199951)"/>
</clipPath>
<clipPath id="clip3_0_1">
<rect width="47.3611" height="13.75" fill="white" transform="translate(0.174438 0.199951)"/>
</clipPath>
</defs>
</svg>
