<svg width="49" height="16" viewBox="0 0 49 16" fill="none" xmlns="http://www.w3.org/2000/svg">
<rect width="49" height="16" fill="#6B6B6B"/>
<g id="Home" clip-path="url(#clip0_0_1)">
<rect width="1440" height="6258" transform="translate(-932 -2264)" fill="white"/>
<g id="Section">
<g id="::before">
<g id="dt-dotted-lines-process.svg fill">
<g id="dt-dotted-lines-process.svg" clip-path="url(#clip1_0_1)">
<path id="Vector" d="M284.5 -13.05H-707.5C-716.337 -13.05 -723.5 -5.88661 -723.5 2.94995V347.95C-723.5 356.786 -716.337 363.95 -707.5 363.95H284.5C293.337 363.95 300.5 356.786 300.5 347.95V2.94995C300.5 -5.88661 293.337 -13.05 284.5 -13.05Z" stroke="#092370" stroke-width="0.5" stroke-linecap="round" stroke-dasharray="5 5"/>
</g>
</g>
</g>
<g id="div.card">
<rect x="-495.95" y="-64.55" width="569" height="108" rx="15.5" fill="#092370"/>
<rect x="-495.95" y="-64.55" width="569" height="108" rx="15.5" stroke="#E6E6E6"/>
<g id="div.dt1-card-img">
<g id="span.h2d-f1e28ba1">
<g id="dt-github-icon.svg" clip-path="url(#clip2_0_1)">
<g id="dt-github-icon.svg fill" clip-path="url(#clip3_0_1)">
<g id="dt-github-icon.svg_2" clip-path="url(#clip4_0_1)">
<g id="Clip path group">
<mask id="mask0_0_1" style="mask-type:luminance" maskUnits="userSpaceOnUse" x="0" y="1" width="49" height="15">
<g id="clip0_5319_21255">
<path id="Vector_2" d="M48.5384 1.06958H0.841553V15.2296H48.5384V1.06958Z" fill="white"/>
</g>
</mask>
<g mask="url(#mask0_0_1)">
<g id="Group">
<path id="Vector_3" d="M22.9502 7.65421H20.3149C20.2824 7.65421 20.2512 7.66706 20.2282 7.68996C20.2052 7.71286 20.1921 7.74395 20.1919 7.77643V9.05603C20.1921 9.08853 20.2052 9.11958 20.2282 9.14254C20.2512 9.16541 20.2824 9.17827 20.3149 9.17827H21.3426V10.7679C21.0578 10.8331 20.7653 10.8582 20.4736 10.8424C19.7209 10.8424 18.6686 10.5689 18.6686 8.27278C18.6686 5.97662 19.7642 5.67329 20.7918 5.67329C21.3075 5.65611 21.8219 5.73418 22.3092 5.90358C22.3271 5.90733 22.3457 5.90706 22.3635 5.90279C22.3813 5.89851 22.3978 5.89034 22.4122 5.87886C22.4264 5.86739 22.4379 5.85288 22.4459 5.83641C22.4539 5.81993 22.4581 5.80191 22.4583 5.7836L22.7519 4.5472C22.7524 4.52868 22.7484 4.51032 22.7402 4.49369C22.732 4.47707 22.7199 4.46271 22.705 4.45181C22.012 4.11684 21.241 3.97645 20.4744 4.04564C18.7148 4.04564 16.9105 4.79091 16.9105 8.36146C16.9105 11.932 18.9764 12.4664 20.7181 12.4664C21.5325 12.4855 22.3357 12.2734 23.0344 11.8545C23.0483 11.8438 23.0594 11.8296 23.0664 11.8135C23.0734 11.7973 23.0763 11.7796 23.0746 11.7621V7.77196C23.0733 7.74001 23.0595 7.70983 23.0363 7.68785C23.013 7.66586 22.9822 7.65379 22.9502 7.65421Z" fill="white"/>
<path id="Vector_4" d="M36.5332 4.47832C36.5333 4.46221 36.5302 4.44623 36.5242 4.43131C36.518 4.4164 36.5091 4.40284 36.4977 4.39141C36.4863 4.37998 36.4728 4.37092 36.458 4.36473C36.4431 4.35854 36.4272 4.35535 36.411 4.35535H34.9272C34.8946 4.35535 34.8633 4.36831 34.8402 4.39136C34.8172 4.41443 34.8043 4.44571 34.8043 4.47832V7.32597H32.4939V4.47832C32.494 4.46221 32.4909 4.44623 32.4848 4.43131C32.4788 4.4164 32.4697 4.40284 32.4584 4.39141C32.447 4.37998 32.4335 4.37092 32.4186 4.36473C32.4037 4.35854 32.3878 4.35535 32.3717 4.35535H30.8879C30.8554 4.35555 30.8243 4.36859 30.8014 4.39163C30.7785 4.41467 30.7656 4.44584 30.7656 4.47832V12.1881C30.7655 12.2043 30.7686 12.2203 30.7747 12.2352C30.7808 12.2502 30.7898 12.2638 30.8011 12.2752C30.8124 12.2867 30.8259 12.2958 30.8409 12.3022C30.8558 12.3084 30.8717 12.3117 30.8879 12.3118H32.3717C32.3878 12.3117 32.4038 12.3084 32.4187 12.3022C32.4336 12.2958 32.4471 12.2867 32.4584 12.2752C32.4698 12.2638 32.4788 12.2502 32.4848 12.2352C32.4909 12.2203 32.494 12.2043 32.4939 12.1881V8.89029H34.8043L34.8005 12.1881C34.8004 12.2043 34.8035 12.2203 34.8097 12.2354C34.8158 12.2503 34.8248 12.264 34.8363 12.2755C34.8477 12.287 34.8613 12.2961 34.8762 12.3023C34.8912 12.3085 34.9072 12.3118 34.9235 12.3118H36.414C36.4302 12.3117 36.4461 12.3084 36.461 12.3022C36.4759 12.2958 36.4894 12.2867 36.5007 12.2752C36.512 12.2638 36.521 12.2502 36.5272 12.2352C36.5332 12.2203 36.5363 12.2043 36.5362 12.1881L36.5332 4.47832Z" fill="white"/>
<path id="Vector_5" d="M25.7519 5.4908C25.7514 5.30167 25.6948 5.11695 25.5892 4.95998C25.4837 4.803 25.3341 4.68082 25.1592 4.60885C24.9843 4.53688 24.7919 4.51836 24.6066 4.55562C24.4211 4.59288 24.2509 4.68425 24.1173 4.81819C23.9838 4.95214 23.893 5.12265 23.8563 5.30819C23.8197 5.49374 23.8387 5.68599 23.9112 5.86067C23.9838 6.03535 24.1064 6.18462 24.2637 6.28964C24.421 6.39466 24.6059 6.4507 24.795 6.4507C24.921 6.4506 25.0455 6.42568 25.1618 6.37737C25.278 6.32906 25.3836 6.25831 25.4726 6.16916C25.5614 6.08 25.6318 5.9742 25.6797 5.85779C25.7277 5.7414 25.7523 5.61669 25.7519 5.4908Z" fill="white"/>
<path id="Vector_6" d="M25.6448 10.5625V7.00382C25.6448 6.97121 25.6319 6.93993 25.6088 6.91687C25.5858 6.89381 25.5545 6.88086 25.5219 6.88086H24.0425C24.008 6.88396 23.9759 6.89966 23.9522 6.92496C23.9286 6.95025 23.9151 6.98336 23.9143 7.01798V12.1164C23.9143 12.2653 24.0082 12.3109 24.1297 12.3109H25.4623C25.6113 12.3109 25.6441 12.2363 25.6441 12.1141L25.6448 10.5625Z" fill="white"/>
<path id="Vector_7" d="M42.1704 6.892H40.6985C40.666 6.89221 40.6349 6.90525 40.612 6.92829C40.5891 6.95133 40.5763 6.9825 40.5763 7.01498V10.795C40.3072 10.9708 39.993 11.0652 39.6715 11.067C39.1409 11.067 39.0008 10.8277 39.0008 10.3113V7.01498C39.0008 6.9825 38.9879 6.95133 38.965 6.92829C38.9421 6.90525 38.911 6.89221 38.8786 6.892H37.3843C37.3517 6.892 37.3204 6.90497 37.2973 6.92804C37.2743 6.95109 37.2614 6.98237 37.2614 7.01498V10.5632C37.2614 12.0962 38.1222 12.4718 39.3056 12.4718C39.9276 12.4548 40.5336 12.2708 41.06 11.939C41.0727 12.0444 41.0908 12.1491 41.1144 12.2527C41.1251 12.2722 41.1406 12.2886 41.1596 12.3004C41.1786 12.3121 41.2001 12.3188 41.2224 12.3197L42.1734 12.3153C42.1895 12.3153 42.2055 12.3121 42.2204 12.3059C42.2353 12.2998 42.2489 12.2907 42.2603 12.2793C42.2717 12.2678 42.2808 12.2543 42.287 12.2394C42.2931 12.2245 42.2964 12.2085 42.2964 12.1923V7.01722C42.2967 7.00063 42.2936 6.98415 42.2874 6.96876C42.2812 6.95339 42.2719 6.93943 42.2601 6.92774C42.2483 6.91604 42.2343 6.90685 42.2189 6.9007C42.2035 6.89457 42.187 6.8916 42.1704 6.892Z" fill="white"/>
<path id="Vector_8" d="M46.1953 6.71802C45.702 6.71549 45.217 6.84409 44.7897 7.09065V4.48222C44.7898 4.46611 44.7867 4.45014 44.7806 4.43523C44.7745 4.42031 44.7655 4.40674 44.7542 4.39531C44.7428 4.38388 44.7293 4.37482 44.7145 4.36863C44.6996 4.36245 44.6836 4.35925 44.6675 4.35925H43.177C43.1443 4.35925 43.1131 4.37221 43.09 4.39528C43.067 4.41834 43.054 4.44961 43.054 4.48222V12.192C43.0539 12.2082 43.057 12.2243 43.0632 12.2393C43.0693 12.2542 43.0783 12.2679 43.0898 12.2794C43.1012 12.2909 43.1148 12.3 43.1297 12.3062C43.1447 12.3125 43.1607 12.3157 43.177 12.3157H44.2136C44.2359 12.3155 44.2577 12.3094 44.2768 12.2978C44.2958 12.2863 44.3113 12.2698 44.3217 12.2501C44.3516 12.1334 44.3724 12.0145 44.3843 11.8946C44.8841 12.289 45.5084 12.492 46.1446 12.4669C47.4973 12.4669 48.2723 11.7858 48.2723 9.41143C48.2723 7.03699 47.0322 6.71802 46.1953 6.71802ZM45.6147 11.0621C45.3128 11.0545 45.0178 10.9698 44.7577 10.8162V8.37548C44.9919 8.24267 45.2508 8.15924 45.5186 8.13029C46.0484 8.08334 46.5619 8.24208 46.5619 9.49785C46.5597 10.8222 46.3287 11.0837 45.6147 11.0621Z" fill="white"/>
<path id="Vector_9" d="M29.9146 6.87901H28.8019V5.41904C28.8019 5.36389 28.7736 5.3363 28.7087 5.3363H27.1921C27.1333 5.3363 27.1012 5.36239 27.1012 5.41829V6.92745C27.1012 6.92745 26.341 7.11004 26.2896 7.12419C26.2641 7.13149 26.2415 7.14694 26.2255 7.16819C26.2095 7.18944 26.2009 7.21534 26.2009 7.24195V8.18993C26.2009 8.22254 26.2139 8.25381 26.237 8.27687C26.26 8.29994 26.2913 8.31289 26.3239 8.31289H27.102V10.5904C27.102 12.2844 28.2989 12.4536 29.1067 12.4536C29.4062 12.4445 29.7031 12.3958 29.9898 12.309C30.0113 12.2999 30.0294 12.2844 30.0418 12.2647C30.0542 12.2449 30.0603 12.222 30.0592 12.1987V11.1554C30.0588 11.1229 30.0457 11.0918 30.0227 11.0688C29.9998 11.0458 29.9687 11.0327 29.9362 11.0323C29.8713 11.0323 29.7052 11.0584 29.5345 11.0584C28.9875 11.0584 28.8027 10.8058 28.8027 10.4794C28.8027 10.1529 28.8027 8.3114 28.8027 8.3114H29.9161C29.9487 8.3114 29.98 8.29845 30.003 8.27538C30.0261 8.25233 30.0391 8.22104 30.0391 8.18842V7.00048C30.0388 6.98434 30.0355 6.96838 30.0291 6.95353C30.0227 6.93869 30.0135 6.92525 30.002 6.91396C29.9904 6.90268 29.9767 6.89378 29.9618 6.88778C29.9467 6.88179 29.9307 6.87881 29.9146 6.87901Z" fill="white"/>
<path id="Vector_10" fill-rule="evenodd" clip-rule="evenodd" d="M7.60623 1.81482C5.99953 1.81607 4.44564 2.38873 3.22236 3.4304C1.99908 4.47208 1.18616 5.91486 0.928907 7.50083C0.671656 9.08681 0.98685 10.7126 1.81815 12.0875C2.64945 13.4625 3.94266 14.4969 5.46659 15.006C5.80494 15.0678 5.92865 14.8569 5.92865 14.6795C5.92865 14.5186 5.92268 14.093 5.9197 13.5281C4.03717 13.9373 3.6392 12.6211 3.6392 12.6211C3.51472 12.2118 3.248 11.8606 2.88722 11.6307C2.27239 11.2104 2.93344 11.2193 2.93344 11.2193C3.14796 11.2489 3.35287 11.3271 3.53254 11.448C3.71221 11.5689 3.86186 11.7293 3.97009 11.9168C4.06178 12.084 4.18569 12.2312 4.33465 12.35C4.48361 12.4689 4.65467 12.557 4.83792 12.6094C5.02118 12.6617 5.21298 12.6772 5.40225 12.6549C5.59152 12.6326 5.77448 12.573 5.94056 12.4795C5.97157 12.1363 6.12407 11.8156 6.37059 11.5748C4.8674 11.4041 3.28743 10.8235 3.28743 8.22929C3.27767 7.55684 3.52721 6.90645 3.98425 6.41309C3.77817 5.83013 3.80189 5.19055 4.05058 4.62445C4.05058 4.62445 4.61847 4.44261 5.91374 5.3183C7.02316 5.01465 8.19379 5.01465 9.30322 5.3183C10.5955 4.44261 11.1664 4.62445 11.1664 4.62445C11.4155 5.19038 11.4397 5.82992 11.2342 6.41309C11.691 6.90642 11.9401 7.55696 11.9295 8.22929C11.9295 10.8295 10.3466 11.4019 8.8389 11.5696C9.00038 11.7337 9.12496 11.9304 9.20426 12.1466C9.28357 12.3629 9.31583 12.5934 9.29877 12.8231C9.29877 13.7279 9.29052 14.4582 9.29052 14.6803C9.29052 14.8614 9.41276 15.0716 9.75633 15.006C11.2806 14.4968 12.5741 13.462 13.4053 12.0865C14.2366 10.7112 14.5515 9.08487 14.2936 7.49863C14.0358 5.91236 13.222 4.46954 11.998 3.42823C10.7739 2.38691 9.2193 1.81501 7.6122 1.81482H7.60623Z" fill="white"/>
</g>
</g>
</g>
</g>
</g>
</g>
</g>
</g>
</g>
</g>
</g>
<defs>
<clipPath id="clip0_0_1">
<rect width="1440" height="6258" fill="white" transform="translate(-932 -2264)"/>
</clipPath>
<clipPath id="clip1_0_1">
<rect width="1026" height="379" fill="white" transform="translate(-724.5 -14.05)"/>
</clipPath>
<clipPath id="clip2_0_1">
<rect width="47.7" height="15.36" fill="white" transform="translate(0.839966 0.389893)"/>
</clipPath>
<clipPath id="clip3_0_1">
<rect width="47.7" height="15.36" fill="white" transform="translate(0.839966 0.389893)"/>
</clipPath>
<clipPath id="clip4_0_1">
<rect width="47.6968" height="15.36" fill="white" transform="translate(0.841553 0.389893)"/>
</clipPath>
</defs>
</svg>
