<svg width="49" height="18" viewBox="0 0 49 18" fill="none" xmlns="http://www.w3.org/2000/svg">
<rect width="49" height="18" fill="#6B6B6B"/>
<g id="Home" clip-path="url(#clip0_0_1)">
<rect width="1440" height="6258" transform="translate(-932 -2227)" fill="white"/>
<g id="Section">
<g id="div.card">
<rect x="-495.95" y="-27.55" width="569" height="108" rx="15.5" fill="#092370"/>
<rect x="-495.95" y="-27.55" width="569" height="108" rx="15.5" stroke="#E6E6E6"/>
<g id="div.dt1-card-img">
<g id="span.h2d-9dd10038">
<g id="dt-jira-logo.svg" clip-path="url(#clip1_0_1)">
<g id="dt-jira-logo.svg fill" clip-path="url(#clip2_0_1)">
<g id="dt-jira-logo.svg_2" clip-path="url(#clip3_0_1)">
<g id="Clip path group">
<mask id="mask0_0_1" style="mask-type:luminance" maskUnits="userSpaceOnUse" x="1" y="0" width="48" height="18">
<g id="clip0_5319_21245">
<path id="Vector" d="M48.135 0.399902H1.24481V17.0961H48.135V0.399902Z" fill="white"/>
</g>
</mask>
<g mask="url(#mask0_0_1)">
<g id="Group">
<path id="Vector_2" d="M25.3299 2.3833H27.0754V11.2427C27.0754 13.5916 26.0478 15.2066 23.6415 15.2066C22.9299 15.2174 22.2217 15.1057 21.548 14.8763V13.182C22.1228 13.4048 22.7345 13.5169 23.3508 13.5124C24.8256 13.5124 25.3328 12.6315 25.3328 11.3594L25.3299 2.3833Z" fill="white"/>
<path id="Vector_3" d="M30.2522 1.7015C30.4078 1.69038 30.5641 1.71284 30.7102 1.76737C30.8565 1.82191 30.9892 1.90724 31.0996 2.01758C31.2099 2.12792 31.2953 2.2607 31.3498 2.40691C31.4044 2.55311 31.4268 2.70934 31.4156 2.86499C31.4156 3.17356 31.2931 3.4695 31.0749 3.68769C30.8567 3.90589 30.5608 4.02848 30.2522 4.02848C29.9436 4.02848 29.6476 3.90589 29.4295 3.68769C29.2113 3.4695 29.0887 3.17356 29.0887 2.86499C29.0776 2.70934 29.1001 2.55311 29.1546 2.40691C29.2091 2.2607 29.2944 2.12792 29.4048 2.01758C29.5151 1.90724 29.6479 1.82191 29.7941 1.76737C29.9403 1.71284 30.0965 1.69038 30.2522 1.7015ZM29.3992 5.42612H31.0677V15.1231H29.3992V5.42612Z" fill="white"/>
<path id="Vector_4" d="M33.5875 5.42439H35.2164V7.13035C35.5071 6.48886 36.0009 5.96088 36.6215 5.62789C37.2421 5.2949 37.9551 5.17541 38.6504 5.28786V6.91674C36.5172 6.69652 35.2164 7.34396 35.2164 9.39857V15.128H33.5875V5.42439Z" fill="white"/>
<path id="Vector_5" d="M46.4664 13.376C46.1741 13.9884 45.7061 14.4999 45.122 14.8453C44.5379 15.1907 43.8641 15.3543 43.1866 15.3154C40.6079 15.3154 39.3079 13.125 39.3079 10.2732C39.3079 7.53804 40.6651 5.23089 43.3804 5.23089C44.0265 5.19668 44.6677 5.36017 45.2185 5.69957C45.7693 6.03897 46.2035 6.53817 46.4635 7.13064V5.42469H48.132V15.1216H46.4635L46.4664 13.376ZM43.6345 13.7636C45.129 13.7636 46.4664 12.8137 46.4664 10.6607V9.87678C46.4664 7.72376 45.2457 6.77389 43.8238 6.77389C41.9416 6.77389 40.972 8.01445 40.972 10.2651C40.9808 12.6009 41.9109 13.7651 43.6388 13.7651L43.6345 13.7636Z" fill="white"/>
<path id="Vector_6" d="M17.2001 8.28077L10.0159 1.09652L9.31779 0.399902L3.91143 5.80846L1.43839 8.28077C1.37702 8.34212 1.32834 8.41495 1.29512 8.49513C1.26191 8.57529 1.24481 8.66122 1.24481 8.74799C1.24481 8.83477 1.26191 8.9207 1.29512 9.00086C1.32834 9.081 1.37702 9.15391 1.43839 9.21521L6.38155 14.1562L9.31779 17.0961L14.7263 11.6875L14.8101 11.6039L17.1986 9.21521C17.26 9.15391 17.3087 9.081 17.342 9.00086C17.3752 8.9207 17.3922 8.83477 17.3922 8.74799C17.3922 8.66122 17.3752 8.57529 17.342 8.49513C17.3087 8.41495 17.26 8.34212 17.1986 8.28077H17.2001ZM9.31779 11.2162L6.85134 8.74836L9.31779 6.27972L11.7864 8.74836L9.31779 11.2162Z" fill="white"/>
<path id="Vector_7" d="M9.32031 6.27979C8.54396 5.50341 8.10635 4.45138 8.10304 3.35343C8.09975 2.25548 8.53102 1.20084 9.3027 0.4198L3.90076 5.81954L6.84066 8.75945L9.32031 6.27979Z" fill="#092370"/>
<path id="Vector_8" d="M11.7934 8.74182L9.31818 11.217C9.70439 11.603 10.0108 12.0613 10.2199 12.5658C10.4289 13.0702 10.5365 13.6109 10.5365 14.1569C10.5365 14.703 10.4289 15.2437 10.2199 15.7482C10.0108 16.2526 9.70439 16.7109 9.31818 17.0969L14.7333 11.6817L11.7934 8.74182Z" fill="#092370"/>
</g>
</g>
</g>
</g>
</g>
</g>
</g>
</g>
</g>
</g>
</g>
<defs>
<clipPath id="clip0_0_1">
<rect width="1440" height="6258" fill="white" transform="translate(-932 -2227)"/>
</clipPath>
<clipPath id="clip1_0_1">
<rect width="47.7" height="17.34" fill="white" transform="translate(0.839966 0.399902)"/>
</clipPath>
<clipPath id="clip2_0_1">
<rect width="47.7" height="17.34" fill="white" transform="translate(0.839966 0.399902)"/>
</clipPath>
<clipPath id="clip3_0_1">
<rect width="47.685" height="17.34" fill="white" transform="translate(0.847473 0.399902)"/>
</clipPath>
</defs>
</svg>
