<svg width="59" height="17" viewBox="0 0 59 17" fill="none" xmlns="http://www.w3.org/2000/svg">
<rect width="59" height="17" fill="#6B6B6B"/>
<g id="Home" clip-path="url(#clip0_0_1)">
<rect width="1440" height="6258" transform="translate(-922 -2390)" fill="white"/>
<g id="Section">
<g id="::before">
<g id="dt-dotted-lines-process.svg fill">
<g id="dt-dotted-lines-process.svg" clip-path="url(#clip1_0_1)">
<path id="Vector" d="M294.5 -139.05H-697.5C-706.337 -139.05 -713.5 -131.887 -713.5 -123.05V221.95C-713.5 230.786 -706.337 237.95 -697.5 237.95H294.5C303.337 237.95 310.5 230.786 310.5 221.95V-123.05C310.5 -131.887 303.337 -139.05 294.5 -139.05Z" stroke="#092370" stroke-width="0.5" stroke-linecap="round" stroke-dasharray="5 5"/>
</g>
</g>
</g>
<g id="div.card">
<rect x="-485.95" y="-56.55" width="569" height="93" rx="15.5" fill="#092370"/>
<rect x="-485.95" y="-56.55" width="569" height="93" rx="15.5" stroke="#E6E6E6"/>
<g id="div.dt1-card-img">
<g id="span.h2d-8f87c6c1">
<g id="dt-mailing-icon.svg" clip-path="url(#clip2_0_1)">
<g id="dt-mailing-icon.svg fill" clip-path="url(#clip3_0_1)">
<g id="dt-mailing-icon.svg_2" clip-path="url(#clip4_0_1)">
<g id="Clip path group">
<mask id="mask0_0_1" style="mask-type:luminance" maskUnits="userSpaceOnUse" x="0" y="1" width="58" height="16">
<g id="clip0_5319_21293">
<path id="Vector_2" d="M57.6308 1.52039H0.810181V16.1838H57.6308V1.52039Z" fill="white"/>
</g>
</mask>
<g mask="url(#mask0_0_1)">
<g id="Group">
<path id="Vector_3" d="M30.8619 6.18142V8.57017H33.8762V9.80327H30.8619V12.2397H34.6863V13.5204H29.2535V4.90662H34.6863V6.18142H30.8619ZM35.7461 13.5204V7.40856H36.6456C36.8362 7.40856 36.9613 7.49791 37.0209 7.67662L37.1162 8.12935C37.2234 8.01022 37.3346 7.901 37.4498 7.80172C37.5689 7.70244 37.694 7.61705 37.8251 7.54557C37.9601 7.47409 38.1031 7.41849 38.254 7.37877C38.4089 7.33509 38.5777 7.31325 38.7603 7.31325C39.1456 7.31325 39.4613 7.41849 39.7075 7.62897C39.9577 7.83548 40.1443 8.11149 40.2675 8.45698C40.3628 8.25445 40.4819 8.0817 40.6249 7.93872C40.7678 7.79179 40.9247 7.67265 41.0955 7.58131C41.2662 7.48996 41.4469 7.42246 41.6376 7.37877C41.8322 7.33509 42.0268 7.31325 42.2213 7.31325C42.5589 7.31325 42.8587 7.36487 43.1209 7.46813C43.383 7.57138 43.6034 7.72229 43.7821 7.92086C43.9608 8.11943 44.0958 8.36168 44.1872 8.64761C44.2825 8.93355 44.3301 9.26119 44.3301 9.63052V13.5204H42.8587V9.63052C42.8587 9.24133 42.7734 8.94944 42.6026 8.75484C42.4318 8.55627 42.1816 8.45698 41.852 8.45698C41.7011 8.45698 41.5601 8.48281 41.4291 8.53443C41.302 8.58606 41.1888 8.66151 41.0895 8.7608C40.9942 8.85611 40.9188 8.97724 40.8632 9.12418C40.8076 9.27111 40.7798 9.4399 40.7798 9.63052V13.5204H39.3024V9.63052C39.3024 9.22147 39.219 8.92361 39.0522 8.73696C38.8894 8.55031 38.6491 8.45698 38.3314 8.45698C38.117 8.45698 37.9164 8.5106 37.7298 8.61783C37.5471 8.72108 37.3763 8.86404 37.2175 9.04672V13.5204H35.7461ZM48.9574 10.9113C48.5325 10.9311 48.1751 10.9688 47.8852 11.0244C47.5952 11.0761 47.3629 11.1436 47.1882 11.227C47.0134 11.3104 46.8883 11.4077 46.8129 11.5189C46.7374 11.6301 46.6997 11.7512 46.6997 11.8823C46.6997 12.1404 46.7752 12.3251 46.9261 12.4363C47.081 12.5475 47.2815 12.6031 47.5277 12.6031C47.8296 12.6031 48.0897 12.5494 48.3081 12.4422C48.5305 12.331 48.7469 12.1642 48.9574 11.9418V10.9113ZM45.5857 8.26041C46.2887 7.61704 47.1346 7.29538 48.1234 7.29538C48.4809 7.29538 48.8005 7.35495 49.0825 7.47409C49.3645 7.58926 49.6028 7.75207 49.7973 7.96255C49.9919 8.16906 50.1389 8.41728 50.2382 8.70719C50.3414 8.99709 50.393 9.3148 50.393 9.66031V13.5204H49.7259C49.5869 13.5204 49.4796 13.5006 49.4042 13.4609C49.3287 13.4172 49.2692 13.3318 49.2255 13.2047L49.0944 12.7639C48.9395 12.9029 48.7886 13.026 48.6417 13.1332C48.4947 13.2365 48.3419 13.3238 48.183 13.3953C48.0241 13.4668 47.8534 13.5204 47.6707 13.5562C47.492 13.5959 47.2934 13.6157 47.075 13.6157C46.8169 13.6157 46.5786 13.582 46.3602 13.5145C46.1417 13.443 45.9531 13.3377 45.7942 13.1988C45.6354 13.0598 45.5123 12.887 45.4249 12.6805C45.3375 12.474 45.2939 12.2337 45.2939 11.9597C45.2939 11.8048 45.3197 11.6519 45.3713 11.501C45.4229 11.3461 45.5063 11.1992 45.6215 11.0602C45.7406 10.9212 45.8935 10.7901 46.0802 10.667C46.2668 10.5439 46.4952 10.4367 46.7652 10.3454C47.0393 10.254 47.357 10.1805 47.7184 10.1249C48.0797 10.0654 48.4928 10.0296 48.9574 10.0177V9.66031C48.9574 9.25126 48.87 8.94944 48.6953 8.75484C48.5206 8.55627 48.2684 8.45698 47.9388 8.45698C47.7005 8.45698 47.5019 8.48479 47.3431 8.54039C47.1882 8.59599 47.0512 8.65953 46.932 8.73101C46.8129 8.79853 46.7037 8.86008 46.6044 8.91568C46.5091 8.97128 46.4019 8.99908 46.2827 8.99908C46.1795 8.99908 46.0921 8.97326 46.0206 8.92164C45.9491 8.86603 45.8915 8.8025 45.8479 8.73101L45.5857 8.26041ZM53.3038 7.40856V13.5204H51.8264V7.40856H53.3038ZM53.5063 5.62742C53.5063 5.7545 53.4805 5.87364 53.4289 5.98484C53.3773 6.09603 53.3078 6.19333 53.2204 6.27673C53.137 6.36013 53.0377 6.42764 52.9225 6.47927C52.8074 6.52692 52.6843 6.55075 52.5532 6.55075C52.4261 6.55075 52.305 6.52692 52.1898 6.47927C52.0786 6.42764 51.9813 6.36013 51.8979 6.27673C51.8145 6.19333 51.747 6.09603 51.6954 5.98484C51.6477 5.87364 51.6239 5.7545 51.6239 5.62742C51.6239 5.49636 51.6477 5.37325 51.6954 5.25808C51.747 5.14291 51.8145 5.04363 51.8979 4.96023C51.9813 4.87684 52.0786 4.81131 52.1898 4.76365C52.305 4.71203 52.4261 4.68621 52.5532 4.68621C52.6843 4.68621 52.8074 4.71203 52.9225 4.76365C53.0377 4.81131 53.137 4.87684 53.2204 4.96023C53.3078 5.04363 53.3773 5.14291 53.4289 5.25808C53.4805 5.37325 53.5063 5.49636 53.5063 5.62742ZM56.2931 4.66833V13.5204H54.8217V4.66833H56.2931Z" fill="white"/>
<path id="Vector_4" d="M18.5615 2.69324L9.83496 8.23875L1.10841 2.69324C1.01017 2.7831 0.93166 2.89239 0.877864 3.01418C0.824069 3.13597 0.796157 3.26761 0.795898 3.40075V14.3067C0.796068 14.4405 0.8242 14.5728 0.87849 14.6951C0.93278 14.8174 1.01203 14.927 1.11116 15.0169L9.83496 9.47414L18.7998 15.2717H18.874V3.40075C18.8738 3.2676 18.8459 3.13595 18.7921 3.01415C18.7383 2.89235 18.6598 2.78307 18.5615 2.69324Z" fill="white"/>
<path id="Vector_5" opacity="0.6" d="M1.75976 15.2667H18.7995L12.7142 8.85144H6.95518L1.1109 15.0129C1.28769 15.1759 1.51929 15.2665 1.75976 15.2667Z" fill="#949494"/>
<path id="Vector_6" d="M1.76251 2.43633C1.52073 2.43672 1.28802 2.52837 1.1109 2.69295L9.17576 11.1519C9.2614 11.2423 9.36457 11.3144 9.47896 11.3636C9.59336 11.4128 9.71658 11.4381 9.84111 11.4381C9.96564 11.4381 10.0889 11.4128 10.2033 11.3636C10.3177 11.3144 10.4208 11.2423 10.5065 11.1519L18.5713 2.69203C18.3942 2.52745 18.1615 2.43581 17.9197 2.43542L1.76251 2.43633Z" fill="#949494"/>
</g>
</g>
</g>
</g>
</g>
</g>
</g>
</g>
</g>
</g>
</g>
<defs>
<clipPath id="clip0_0_1">
<rect width="1440" height="6258" fill="white" transform="translate(-922 -2390)"/>
</clipPath>
<clipPath id="clip1_0_1">
<rect width="1026" height="379" fill="white" transform="translate(-714.5 -140.05)"/>
</clipPath>
<clipPath id="clip2_0_1">
<rect width="58" height="16" fill="white" transform="translate(0.0499878 0.579956)"/>
</clipPath>
<clipPath id="clip3_0_1">
<rect width="58" height="16" fill="white" transform="translate(0.0499878 0.579956)"/>
</clipPath>
<clipPath id="clip4_0_1">
<rect width="58" height="16" fill="white" transform="translate(0.0499878 0.579956)"/>
</clipPath>
</defs>
</svg>
