<svg width="74" height="17" viewBox="0 0 74 17" fill="none" xmlns="http://www.w3.org/2000/svg">
<rect width="74" height="17" fill="#6B6B6B"/>
<g id="Home" clip-path="url(#clip0_0_1)">
<rect width="1440" height="6258" transform="translate(-907 -2473)" fill="white"/>
<g id="Section">
<g id="::before">
<g id="dt-dotted-lines-process.svg fill">
<g id="dt-dotted-lines-process.svg" clip-path="url(#clip1_0_1)">
<path id="Vector" d="M309.5 -222.05H-682.5C-691.337 -222.05 -698.5 -214.887 -698.5 -206.05V138.95C-698.5 147.786 -691.337 154.95 -682.5 154.95H309.5C318.337 154.95 325.5 147.786 325.5 138.95V-206.05C325.5 -214.887 318.337 -222.05 309.5 -222.05Z" stroke="#092370" stroke-width="0.5" stroke-linecap="round" stroke-dasharray="5 5"/>
</g>
</g>
</g>
<g id="div.card">
<rect x="-470.95" y="-20.55" width="569" height="93" rx="15.5" fill="#092370"/>
<rect x="-470.95" y="-20.55" width="569" height="93" rx="15.5" stroke="#E6E6E6"/>
<g id="div.dt1-card-img">
<g id="span.h2d-7c004f12">
<g id="dt-scrum-icon.svg" clip-path="url(#clip2_0_1)">
<g id="dt-scrum-icon.svg fill" clip-path="url(#clip3_0_1)">
<g id="dt-scrum-icon.svg_2" clip-path="url(#clip4_0_1)">
<path id="Vector_2" d="M20.7149 13.145L16.6559 9.89715V11.8557H13.7523C14.2803 11.1557 14.6593 10.355 14.8659 9.50291L16.0113 9.20699V6.77139L14.8668 6.48185C14.7092 5.82678 14.4489 5.20079 14.0956 4.62715L14.702 3.61012L12.9802 1.88927L11.9632 2.49475C11.3895 2.14143 10.7635 1.88115 10.1085 1.72355L9.81984 0.579956H7.38606L7.09652 1.72446C6.44141 1.88188 5.8154 2.14218 5.24182 2.49566L4.22479 1.89018L2.50302 3.61103L3.10942 4.62806C2.75613 5.20175 2.49584 5.82772 2.33822 6.48276L1.19462 6.77139V9.20517L2.33913 9.49744C2.54529 10.3515 2.92563 11.1537 3.45632 11.8539H0.549988V14.4306H16.6559V16.3891L20.7149 13.145ZM1.19371 13.7896V12.4985H4.01628C4.53809 13.0275 5.1466 13.4632 5.81544 13.7869L1.19371 13.7896ZM8.60249 13.7896C7.27038 13.7863 5.97974 13.3259 4.94629 12.4854C3.91284 11.6448 3.19918 10.475 2.92459 9.17148L2.88361 8.9739L1.83744 8.70621V7.27308L2.8827 7.00903L2.92368 6.81145C3.07139 6.09697 3.35382 5.41716 3.75588 4.80834L3.86696 4.6399L3.31337 3.7121L4.32585 2.69961L5.25548 3.25411L5.42392 3.14303C6.03274 2.74098 6.71255 2.45855 7.42703 2.31083L7.62461 2.26986L7.88866 1.22368H9.31815L9.5822 2.26895L9.77978 2.30992C10.4943 2.45764 11.1741 2.74007 11.7829 3.14212L11.9513 3.2532L12.881 2.6987L13.8934 3.71119L13.3389 4.64081L13.45 4.80925C13.8521 5.41807 14.1345 6.09788 14.2822 6.81236L14.3232 7.00994L15.3694 7.2749V8.70712L14.3223 8.98028L14.2813 9.17603C14.0726 10.1741 13.6036 11.0992 12.9219 11.8575H8.6034V12.5021H17.3033V11.2329L19.6843 13.145L17.3033 15.0497V13.7869L8.60249 13.7896Z" fill="white"/>
<path id="Vector_3" d="M8.60214 12.4989C7.7102 12.4989 6.83829 12.2344 6.09667 11.7388C5.35505 11.2433 4.77702 10.5389 4.43569 9.7149C4.09436 8.89086 4.00506 7.9841 4.17906 7.1093C4.35307 6.2345 4.78258 5.43094 5.41328 4.80025C6.04398 4.16955 6.84753 3.74004 7.72234 3.56603C8.59714 3.39202 9.50389 3.48133 10.3279 3.82266C11.152 4.16399 11.8563 4.74201 12.3519 5.48363C12.8474 6.22526 13.1119 7.09716 13.1119 7.9891C13.1107 9.18479 12.6352 10.3312 11.7897 11.1767C10.9442 12.0222 9.79782 12.4977 8.60214 12.4989Z" fill="white"/>
<path id="Vector_4" d="M6.20108 10.1361C6.04199 9.95799 5.90305 9.76287 5.7868 9.55427L6.34948 9.24015C6.44253 9.40694 6.55368 9.56297 6.6809 9.70541L6.20108 10.1361ZM5.51 8.89597C5.44299 8.66667 5.40176 8.4306 5.38708 8.19215L6.02989 8.15209C6.04174 8.34272 6.07472 8.53144 6.12823 8.71478L5.51 8.89597ZM6.0563 7.5803L5.41894 7.47923C5.4568 7.24347 5.52062 7.01262 5.60924 6.79089L6.20745 7.03035C6.13702 7.20749 6.08571 7.39195 6.0563 7.5803Z" fill="white"/>
<path id="Vector_5" d="M10.4406 9.37188L9.47188 8.40311C9.53493 8.27408 9.56793 8.13244 9.56839 7.98883C9.56842 7.789 9.50642 7.59409 9.39095 7.431C9.27548 7.26791 9.11224 7.14468 8.92375 7.07832V4.76746H8.27911V7.08196C8.06423 7.15755 7.88304 7.30677 7.76766 7.50319C7.65228 7.6996 7.61017 7.93052 7.64879 8.15502C7.6874 8.37952 7.80425 8.58309 7.97863 8.72966C8.153 8.87624 8.37364 8.95634 8.60143 8.95578C8.74504 8.95532 8.88668 8.92232 9.01571 8.85927L9.98449 9.82805L10.4406 9.37188ZM8.60234 8.31114C8.5386 8.31114 8.47628 8.29224 8.42327 8.25682C8.37027 8.22141 8.32896 8.17107 8.30456 8.11217C8.28016 8.05328 8.27378 7.98847 8.28622 7.92595C8.29866 7.86342 8.32935 7.80599 8.37443 7.76091C8.41951 7.71583 8.47694 7.68514 8.53946 7.6727C8.60199 7.66026 8.66679 7.66665 8.72569 7.69104C8.78459 7.71544 8.83493 7.75675 8.87034 7.80975C8.90576 7.86276 8.92466 7.92508 8.92466 7.98883C8.92466 8.07431 8.8907 8.15629 8.83026 8.21674C8.76981 8.27719 8.68783 8.31114 8.60234 8.31114Z" fill="#092370"/>
<path id="Vector_6" d="M30.9353 8.6933C30.9353 9.17587 30.8549 9.61898 30.6941 10.0226C30.5332 10.4263 30.3071 10.7738 30.0157 11.0652C29.7244 11.3565 29.3738 11.5826 28.9641 11.7435C28.5544 11.9044 28.0991 11.9848 27.5983 11.9848H25.0899V5.40183H27.5983C28.0991 5.40183 28.5544 5.48377 28.9641 5.64766C29.3738 5.80852 29.7244 6.03463 30.0157 6.32599C30.3071 6.61432 30.5332 6.96031 30.6941 7.36396C30.8549 7.76762 30.9353 8.21073 30.9353 8.6933ZM29.6788 8.6933C29.6788 8.33213 29.6303 8.0089 29.5332 7.72361C29.4391 7.43529 29.301 7.19249 29.1189 6.99521C28.9398 6.7949 28.7213 6.64163 28.4633 6.5354C28.2084 6.42918 27.9201 6.37607 27.5983 6.37607H26.3191V11.0105H27.5983C27.9201 11.0105 28.2084 10.9574 28.4633 10.8512C28.7213 10.745 28.9398 10.5932 29.1189 10.3959C29.301 10.1956 29.4391 9.95283 29.5332 9.66754C29.6303 9.37921 29.6788 9.05447 29.6788 8.6933ZM34.1908 9.99077C33.8661 10.0059 33.5929 10.0348 33.3714 10.0773C33.1498 10.1167 32.9723 10.1683 32.8387 10.232C32.7052 10.2958 32.6096 10.3701 32.5519 10.4551C32.4942 10.5401 32.4654 10.6327 32.4654 10.7328C32.4654 10.9301 32.5231 11.0712 32.6384 11.1562C32.7568 11.2412 32.91 11.2837 33.0982 11.2837C33.3289 11.2837 33.5277 11.2427 33.6946 11.1608C33.8646 11.0758 34.03 10.9483 34.1908 10.7784V9.99077ZM31.6141 7.9649C32.1513 7.47322 32.7978 7.22739 33.5535 7.22739C33.8266 7.22739 34.0709 7.27291 34.2864 7.36396C34.5019 7.45198 34.684 7.57642 34.8327 7.73727C34.9814 7.89509 35.0937 8.08478 35.1696 8.30634C35.2485 8.52789 35.288 8.77069 35.288 9.03474V11.9848H34.7781C34.6719 11.9848 34.5899 11.9696 34.5323 11.9393C34.4746 11.9059 34.4291 11.8406 34.3957 11.7435L34.2955 11.4066C34.1772 11.5128 34.0618 11.6069 33.9495 11.6889C33.8372 11.7678 33.7204 11.8346 33.599 11.8892C33.4776 11.9438 33.3471 11.9848 33.2075 12.0121C33.0709 12.0425 32.9192 12.0576 32.7522 12.0576C32.5549 12.0576 32.3728 12.0318 32.2059 11.9802C32.039 11.9256 31.8948 11.8452 31.7734 11.7389C31.652 11.6327 31.5579 11.5007 31.4912 11.3429C31.4244 11.1851 31.391 11.0014 31.391 10.792C31.391 10.6737 31.4107 10.5568 31.4502 10.4415C31.4897 10.3231 31.5534 10.2108 31.6414 10.1046C31.7325 9.99836 31.8493 9.8982 31.992 9.80412C32.1346 9.71003 32.3091 9.62809 32.5155 9.55828C32.7249 9.48847 32.9677 9.43233 33.2439 9.38984C33.5201 9.34431 33.8357 9.317 34.1908 9.30789V9.03474C34.1908 8.72213 34.1241 8.49147 33.9905 8.34276C33.857 8.19101 33.6642 8.11513 33.4123 8.11513C33.2302 8.11513 33.0785 8.13638 32.9571 8.17887C32.8387 8.22136 32.734 8.26992 32.643 8.32455C32.5519 8.37614 32.4685 8.42318 32.3926 8.46567C32.3197 8.50816 32.2378 8.52941 32.1467 8.52941C32.0678 8.52941 32.0011 8.50968 31.9464 8.47023C31.8918 8.42774 31.8478 8.37918 31.8144 8.32455L31.6141 7.9649ZM37.5125 7.31389V11.9848H36.3834V7.31389H37.5125ZM37.6672 5.95268C37.6672 6.0498 37.6475 6.14085 37.6081 6.22583C37.5686 6.31081 37.5155 6.38517 37.4487 6.44891C37.385 6.51264 37.3091 6.56424 37.2211 6.60369C37.1331 6.64011 37.039 6.65832 36.9388 6.65832C36.8417 6.65832 36.7492 6.64011 36.6611 6.60369C36.5762 6.56424 36.5018 6.51264 36.4381 6.44891C36.3743 6.38517 36.3227 6.31081 36.2833 6.22583C36.2469 6.14085 36.2286 6.0498 36.2286 5.95268C36.2286 5.85253 36.2469 5.75844 36.2833 5.67043C36.3227 5.58241 36.3743 5.50653 36.4381 5.4428C36.5018 5.37906 36.5762 5.32899 36.6611 5.29257C36.7492 5.25311 36.8417 5.23338 36.9388 5.23338C37.039 5.23338 37.1331 5.25311 37.2211 5.29257C37.3091 5.32899 37.385 5.37906 37.4487 5.4428C37.5155 5.50653 37.5686 5.58241 37.6081 5.67043C37.6475 5.75844 37.6672 5.85253 37.6672 5.95268ZM39.797 5.21973V11.9848H38.6725V5.21973H39.797ZM45.1603 7.31389L42.6154 13.2686C42.582 13.3475 42.538 13.4067 42.4834 13.4461C42.4318 13.4886 42.3514 13.5099 42.2421 13.5099H41.4044L42.2785 11.6342L40.3892 7.31389H41.3771C41.4651 7.31389 41.5334 7.33513 41.582 7.37762C41.6336 7.42011 41.6715 7.46867 41.6958 7.5233L42.6882 9.94524C42.7216 10.0272 42.7489 10.1091 42.7702 10.1911C42.7945 10.273 42.8172 10.3565 42.8385 10.4415C42.8658 10.3565 42.8931 10.273 42.9204 10.1911C42.9477 10.1061 42.9781 10.0226 43.0115 9.94069L43.9493 7.5233C43.9736 7.4626 44.013 7.41252 44.0677 7.37307C44.1253 7.33361 44.1891 7.31389 44.2589 7.31389H45.1603ZM51.3846 6.59914C51.3482 6.66288 51.3088 6.70992 51.2663 6.74027C51.2268 6.76758 51.1767 6.78124 51.116 6.78124C51.0523 6.78124 50.9825 6.75848 50.9066 6.71295C50.8338 6.66439 50.7458 6.61128 50.6426 6.55361C50.5394 6.49595 50.418 6.44435 50.2784 6.39883C50.1418 6.35027 49.9794 6.32599 49.7913 6.32599C49.6213 6.32599 49.4726 6.34723 49.3451 6.38972C49.2176 6.42918 49.1099 6.48533 49.0219 6.55817C48.9369 6.63101 48.8732 6.71902 48.8307 6.82221C48.7882 6.92237 48.7669 7.03315 48.7669 7.15455C48.7669 7.30933 48.8094 7.43832 48.8944 7.54151C48.9824 7.6447 49.0978 7.73272 49.2404 7.80556C49.383 7.8784 49.5454 7.94365 49.7275 8.00132C49.9096 8.05898 50.0963 8.1212 50.2875 8.18797C50.4787 8.25171 50.6653 8.32758 50.8474 8.4156C51.0295 8.50058 51.1919 8.60984 51.3346 8.74338C51.4772 8.87388 51.591 9.03474 51.676 9.22595C51.764 9.41715 51.808 9.64933 51.808 9.92248C51.808 10.2199 51.7564 10.4991 51.6532 10.7602C51.5531 11.0181 51.4044 11.2442 51.2071 11.4385C51.0128 11.6297 50.7746 11.7814 50.4923 11.8937C50.2101 12.003 49.8869 12.0576 49.5227 12.0576C49.3132 12.0576 49.1069 12.0364 48.9035 11.9939C48.7002 11.9544 48.5044 11.8968 48.3162 11.8209C48.1311 11.745 47.9566 11.654 47.7927 11.5477C47.6288 11.4415 47.4831 11.3232 47.3557 11.1926L47.7153 10.6054C47.7457 10.5629 47.7851 10.528 47.8337 10.5006C47.8822 10.4703 47.9338 10.4551 47.9885 10.4551C48.0643 10.4551 48.1463 10.487 48.2343 10.5507C48.3223 10.6114 48.427 10.6797 48.5484 10.7556C48.6698 10.8315 48.8109 10.9013 48.9718 10.965C49.1357 11.0257 49.3314 11.0561 49.5591 11.0561C49.9081 11.0561 50.1782 10.9741 50.3694 10.8102C50.5606 10.6433 50.6562 10.405 50.6562 10.0955C50.6562 9.92248 50.6122 9.78135 50.5242 9.67209C50.4392 9.56283 50.3254 9.47178 50.1828 9.39894C50.0401 9.32307 49.8777 9.25933 49.6956 9.20774C49.5135 9.15614 49.3284 9.09999 49.1402 9.03929C48.9521 8.97859 48.7669 8.90575 48.5848 8.82077C48.4027 8.73579 48.2404 8.62501 48.0977 8.48844C47.9551 8.35186 47.8397 8.1819 47.7517 7.97855C47.6667 7.77217 47.6243 7.51875 47.6243 7.21828C47.6243 6.97852 47.6713 6.74482 47.7654 6.51719C47.8625 6.28957 48.0021 6.08774 48.1842 5.91171C48.3663 5.73568 48.5909 5.59455 48.858 5.48832C49.1251 5.3821 49.4316 5.32899 49.7776 5.32899C50.1661 5.32899 50.5242 5.38969 50.852 5.51109C51.1798 5.63249 51.459 5.80245 51.6897 6.02097L51.3846 6.59914ZM56.0271 8.30178C55.9937 8.34427 55.9603 8.37766 55.9269 8.40194C55.8966 8.42622 55.851 8.43836 55.7903 8.43836C55.7327 8.43836 55.6765 8.42167 55.6219 8.38828C55.5673 8.35186 55.502 8.31241 55.4261 8.26992C55.3503 8.22439 55.2592 8.18494 55.153 8.15155C55.0498 8.11513 54.9208 8.09692 54.766 8.09692C54.5687 8.09692 54.3957 8.13334 54.247 8.20618C54.0983 8.27599 53.9739 8.37766 53.8737 8.5112C53.7766 8.64474 53.7038 8.80711 53.6552 8.99832C53.6066 9.18649 53.5824 9.40046 53.5824 9.64023C53.5824 9.8891 53.6082 10.1106 53.6598 10.3049C53.7144 10.4991 53.7918 10.663 53.8919 10.7966C53.9921 10.9271 54.1135 11.0272 54.2561 11.097C54.3988 11.1638 54.5596 11.1972 54.7387 11.1972C54.9178 11.1972 55.0619 11.176 55.1712 11.1335C55.2835 11.0879 55.3776 11.0394 55.4535 10.9878C55.5293 10.9332 55.5946 10.8846 55.6492 10.8421C55.7069 10.7966 55.7706 10.7738 55.8404 10.7738C55.9315 10.7738 55.9998 10.8087 56.0453 10.8785L56.3685 11.2882C56.2441 11.4339 56.109 11.5568 55.9633 11.657C55.8177 11.7541 55.6659 11.833 55.5081 11.8937C55.3533 11.9514 55.1924 11.9924 55.0255 12.0167C54.8616 12.0409 54.6977 12.0531 54.5338 12.0531C54.2455 12.0531 53.9739 12 53.7189 11.8937C53.464 11.7845 53.2409 11.6267 53.0497 11.4203C52.8585 11.2139 52.7068 10.962 52.5945 10.6646C52.4852 10.3641 52.4306 10.0226 52.4306 9.64023C52.4306 9.29727 52.4791 8.98011 52.5763 8.68875C52.6764 8.39435 52.8221 8.14093 53.0133 7.92848C53.2045 7.71299 53.4412 7.54455 53.7235 7.42315C54.0057 7.30175 54.3305 7.24105 54.6977 7.24105C55.0468 7.24105 55.3518 7.29719 55.6128 7.40949C55.8768 7.52178 56.1136 7.68264 56.323 7.89206L56.0271 8.30178ZM58.1342 8.12424C58.2799 7.84501 58.4529 7.62649 58.6532 7.46867C58.8535 7.30782 59.0902 7.22739 59.3634 7.22739C59.5788 7.22739 59.7518 7.27443 59.8823 7.36852L59.8095 8.21073C59.7943 8.26536 59.7716 8.30482 59.7412 8.3291C59.7139 8.35034 59.676 8.36097 59.6274 8.36097C59.5819 8.36097 59.5136 8.35338 59.4225 8.3382C59.3345 8.32303 59.248 8.31544 59.163 8.31544C59.0386 8.31544 58.9278 8.33365 58.8307 8.37007C58.7336 8.40649 58.6456 8.4596 58.5667 8.52941C58.4908 8.59618 58.4225 8.67813 58.3618 8.77525C58.3041 8.87237 58.2495 8.98314 58.1979 9.10758V11.9848H57.0734V7.31389H57.7336C57.8489 7.31389 57.9293 7.33513 57.9748 7.37762C58.0204 7.41708 58.0507 7.48992 58.0659 7.59614L58.1342 8.12424ZM64.4945 7.31389V11.9848H63.807C63.6583 11.9848 63.5642 11.9165 63.5248 11.7799L63.4474 11.4066C63.2562 11.6009 63.0453 11.7587 62.8146 11.8801C62.5839 11.9984 62.3123 12.0576 61.9997 12.0576C61.7448 12.0576 61.5186 12.0151 61.3214 11.9302C61.1271 11.8421 60.9632 11.7192 60.8297 11.5614C60.6962 11.4036 60.5945 11.2169 60.5247 11.0014C60.4579 10.7829 60.4245 10.5431 60.4245 10.2821V7.31389H61.549V10.2821C61.549 10.5674 61.6142 10.789 61.7448 10.9468C61.8783 11.1016 62.0771 11.179 62.3411 11.179C62.5354 11.179 62.7175 11.1365 62.8874 11.0515C63.0574 10.9635 63.2183 10.8436 63.37 10.6919V7.31389H64.4945ZM65.6094 11.9848V7.31389H66.2969C66.4425 7.31389 66.5381 7.38217 66.5837 7.51875L66.6565 7.86474C66.7384 7.77369 66.8234 7.69023 66.9114 7.61435C67.0025 7.53848 67.0981 7.47322 67.1983 7.41859C67.3014 7.36396 67.4107 7.32147 67.526 7.29112C67.6444 7.25774 67.7734 7.24105 67.913 7.24105C68.2074 7.24105 68.4487 7.32147 68.6368 7.48233C68.8281 7.64015 68.9707 7.85108 69.0648 8.11513C69.1376 7.96034 69.2287 7.82832 69.3379 7.71906C69.4472 7.60677 69.5671 7.51571 69.6976 7.44591C69.8281 7.3761 69.9662 7.32451 70.1119 7.29112C70.2606 7.25774 70.4093 7.24105 70.558 7.24105C70.816 7.24105 71.0451 7.2805 71.2454 7.35941C71.4458 7.43832 71.6142 7.55365 71.7508 7.7054C71.8874 7.85715 71.9905 8.04229 72.0603 8.26081C72.1332 8.47933 72.1696 8.72972 72.1696 9.01198V11.9848H71.0451V9.01198C71.0451 8.71455 70.9799 8.49147 70.8494 8.34276C70.7189 8.19101 70.5277 8.11513 70.2758 8.11513C70.1604 8.11513 70.0527 8.13486 69.9525 8.17431C69.8554 8.21377 69.7689 8.27143 69.693 8.34731C69.6202 8.42015 69.5625 8.51272 69.52 8.62501C69.4775 8.73731 69.4563 8.8663 69.4563 9.01198V11.9848H68.3273V9.01198C68.3273 8.69937 68.2635 8.47174 68.1361 8.3291C68.0116 8.18645 67.828 8.11513 67.5852 8.11513C67.4213 8.11513 67.2681 8.1561 67.1254 8.23805C66.9858 8.31696 66.8553 8.42622 66.7339 8.56583V11.9848H65.6094Z" fill="white"/>
</g>
</g>
</g>
</g>
</g>
</g>
</g>
</g>
<defs>
<clipPath id="clip0_0_1">
<rect width="1440" height="6258" fill="white" transform="translate(-907 -2473)"/>
</clipPath>
<clipPath id="clip1_0_1">
<rect width="1026" height="379" fill="white" transform="translate(-699.5 -223.05)"/>
</clipPath>
<clipPath id="clip2_0_1">
<rect width="73" height="16" fill="white" transform="translate(0.549988 0.579956)"/>
</clipPath>
<clipPath id="clip3_0_1">
<rect width="73" height="16" fill="white" transform="translate(0.549988 0.579956)"/>
</clipPath>
<clipPath id="clip4_0_1">
<rect width="73" height="16" fill="white" transform="translate(0.549988 0.579956)"/>
</clipPath>
</defs>
</svg>
