<svg width="48" height="16" viewBox="0 0 48 16" fill="none" xmlns="http://www.w3.org/2000/svg">
<rect width="48" height="16" fill="#6B6B6B"/>
<g id="Home" clip-path="url(#clip0_0_1)">
<rect width="1440" height="6258" transform="translate(-933 -2600)" fill="white"/>
<g id="Section">
<g id="::before">
<g id="dt-dotted-lines-process.svg fill">
<g id="dt-dotted-lines-process.svg" clip-path="url(#clip1_0_1)">
<path id="Vector" d="M283.5 -349.05H-708.5C-717.337 -349.05 -724.5 -341.887 -724.5 -333.05V11.95C-724.5 20.7865 -717.337 27.95 -708.5 27.95H283.5C292.337 27.95 299.5 20.7865 299.5 11.95V-333.05C299.5 -341.887 292.337 -349.05 283.5 -349.05Z" stroke="#092370" stroke-width="0.5" stroke-linecap="round" stroke-dasharray="5 5"/>
</g>
</g>
</g>
<g id="div.card">
<rect x="-496.95" y="-28.55" width="569" height="108" rx="15.5" fill="#092370"/>
<rect x="-496.95" y="-28.55" width="569" height="108" rx="15.5" stroke="#E6E6E6"/>
<g id="div.dt1-card-img">
<g id="span.h2d-55a8b7e9">
<g id="dt-skype-icon.svg" clip-path="url(#clip2_0_1)">
<g id="dt-skype-icon.svg fill" clip-path="url(#clip3_0_1)">
<g id="dt-skype-icon.svg_2" clip-path="url(#clip4_0_1)">
<g id="Clip path group">
<mask id="mask0_0_1" style="mask-type:luminance" maskUnits="userSpaceOnUse" x="0" y="0" width="48" height="16">
<g id="clip0_5319_21324">
<path id="Vector_2" d="M47.2111 0.579956H0.170776V15.3895H47.2111V0.579956Z" fill="white"/>
</g>
</mask>
<g mask="url(#mask0_0_1)">
<g id="Group">
<path id="Vector_3" d="M18.2319 10.2484V9.13803C18.3707 9.25819 18.5243 9.36003 18.6889 9.44119C18.8694 9.53103 19.057 9.60596 19.2496 9.66524C19.4432 9.72643 19.6408 9.77427 19.841 9.80861C20.0224 9.84082 20.2063 9.8578 20.3905 9.85938C20.8466 9.89245 21.3014 9.77948 21.689 9.5368C21.8309 9.42895 21.9443 9.28795 22.0191 9.12619C22.094 8.96435 22.1281 8.78672 22.1183 8.60869C22.123 8.41049 22.0734 8.21481 21.975 8.0427C21.8717 7.87273 21.7377 7.72336 21.58 7.60217C21.3928 7.45722 21.1929 7.32952 20.9826 7.22062C20.7527 7.09916 20.5037 6.97123 20.236 6.83683C19.9577 6.69596 19.6971 6.55259 19.4542 6.40675C19.2247 6.27134 19.012 6.10945 18.8203 5.92439C18.6438 5.75286 18.5003 5.5504 18.397 5.32706C18.2902 5.08057 18.2385 4.8138 18.2454 4.54529C18.2372 4.2107 18.3207 3.88025 18.4866 3.58955C18.6445 3.32062 18.8612 3.09089 19.1204 2.91755C19.3945 2.73636 19.6975 2.60352 20.0165 2.5248C20.3509 2.43876 20.6948 2.39535 21.0401 2.39563C21.632 2.35869 22.2246 2.45647 22.7732 2.6816V3.74113C22.2291 3.3925 21.5908 3.22015 20.9453 3.24758C20.7381 3.24767 20.5314 3.26918 20.3286 3.31179C20.1347 3.3503 19.9489 3.42151 19.779 3.52235C19.6217 3.61571 19.4875 3.74331 19.3862 3.89569C19.282 4.06368 19.23 4.25886 19.237 4.45644C19.2322 4.64053 19.2717 4.82307 19.3519 4.98881C19.4357 5.147 19.5511 5.28627 19.6909 5.39799C19.861 5.5351 20.0441 5.65538 20.2375 5.75714C20.4525 5.87313 20.7014 6.00031 20.9841 6.13869C21.2718 6.28056 21.5456 6.42989 21.8055 6.58669C22.051 6.73436 22.2787 6.90974 22.4842 7.10936C22.6735 7.29277 22.83 7.50716 22.9472 7.74329C23.0648 7.99185 23.1233 8.26428 23.1182 8.53922C23.1268 8.89172 23.0428 9.24035 22.8747 9.55022C22.7233 9.82203 22.5077 10.0527 22.2467 10.2222C21.9681 10.4006 21.6595 10.5271 21.3358 10.5956C20.9785 10.6736 20.6136 10.7122 20.248 10.7106C20.0905 10.7088 19.9332 10.6985 19.7768 10.68C19.5901 10.6595 19.3994 10.6297 19.2048 10.5904C19.0178 10.5519 18.8332 10.5021 18.6523 10.441C18.5041 10.3961 18.3627 10.3312 18.2319 10.2484ZM29.3514 10.5739H28.0611L25.5269 7.81422H25.5045V10.5731H24.5846V2.07605H25.5045V7.46478H25.5269L27.9379 4.835H29.1467L26.4804 7.60142L29.3514 10.5739ZM34.8632 4.83202L32.2223 11.4931C31.7509 12.6817 31.0891 13.2761 30.2369 13.2761C30.0352 13.28 29.8341 13.2548 29.6395 13.2015V12.3801C29.8141 12.4431 29.9976 12.4771 30.1832 12.4809C30.423 12.4719 30.6537 12.3866 30.8417 12.2374C31.0297 12.0882 31.1652 11.8829 31.2285 11.6514L31.6855 10.562L29.4454 4.83127H30.4661L32.0192 9.25006C32.0381 9.30635 32.0774 9.45217 32.1372 9.68759H32.1707C32.1897 9.59806 32.227 9.45588 32.2828 9.26127L33.9143 4.83127L34.8632 4.83202ZM36.7919 9.74435H36.7695V13.2142H35.8504V4.83127H36.7703V5.84077H36.7927C36.9844 5.48406 37.2718 5.18797 37.6228 4.98587C37.9737 4.78376 38.3741 4.68367 38.7788 4.69687C39.1079 4.68065 39.4363 4.74201 39.7373 4.87599C40.0383 5.00996 40.3036 5.21282 40.5118 5.46818C40.9528 6.06374 41.173 6.79415 41.1346 7.53422C41.1765 8.36145 40.9285 9.17743 40.4335 9.84145C40.204 10.1259 39.911 10.3525 39.5779 10.5029C39.2448 10.6534 38.8811 10.7235 38.516 10.7076C38.1683 10.7181 37.8242 10.6339 37.5206 10.4641C37.217 10.2944 36.9651 10.0461 36.7919 9.74435ZM36.7695 7.42968V8.23162C36.7594 8.67943 36.9257 9.11332 37.2325 9.43969C37.3813 9.60177 37.5632 9.72998 37.7657 9.81564C37.9684 9.9013 38.1871 9.94243 38.407 9.93627C38.6611 9.94622 38.9137 9.89309 39.1423 9.78153C39.3708 9.66998 39.5682 9.50356 39.7166 9.29711C40.0613 8.77069 40.2276 8.14741 40.1908 7.51929C40.2232 6.98171 40.0671 6.44965 39.7495 6.01474C39.6058 5.83679 39.4224 5.69495 39.214 5.60056C39.0057 5.50617 38.7782 5.46186 38.5496 5.47117C38.3067 5.46204 38.0648 5.50739 37.8416 5.60391C37.6185 5.70042 37.4198 5.84564 37.2601 6.02893C36.9278 6.41756 36.7528 6.91639 36.7695 7.42745V7.42968ZM47.2162 7.9322H43.1618C43.141 8.47314 43.3253 9.00201 43.6777 9.41285C43.8543 9.59064 44.0665 9.72903 44.3002 9.81911C44.5341 9.90919 44.7842 9.9489 45.0344 9.93548C45.6847 9.93438 46.3146 9.70859 46.8175 9.2964V10.1602C46.2257 10.5519 45.5245 10.7445 44.8157 10.7098C44.459 10.7281 44.1027 10.6675 43.7721 10.5322C43.4416 10.397 43.145 10.1904 42.9035 9.92727C42.4061 9.30556 42.1582 8.52074 42.2083 7.72612C42.1746 6.92792 42.4464 6.14688 42.9684 5.5421C43.2018 5.27175 43.4919 5.05604 43.8179 4.91023C44.144 4.76442 44.4981 4.6921 44.8552 4.69836C45.1822 4.67955 45.5091 4.7354 45.8113 4.86165C46.1136 4.98791 46.3831 5.18128 46.5995 5.42711C47.0411 6.00637 47.26 6.72499 47.2162 7.45209V7.9322ZM46.2739 7.15342C46.2979 6.70771 46.1618 6.2681 45.8901 5.91394C45.7596 5.76558 45.5973 5.64868 45.4153 5.572C45.2331 5.49532 45.0361 5.46085 44.8388 5.47117C44.6325 5.46774 44.4278 5.50734 44.2377 5.58743C44.0475 5.66752 43.8762 5.78636 43.7345 5.93634C43.4202 6.27032 43.2231 6.69753 43.173 7.15342H46.2739Z" fill="white"/>
<path id="Vector_4" d="M7.56846 12.4424C5.10818 12.4424 3.98444 11.1895 3.98444 10.2696C3.98427 10.161 4.00626 10.0536 4.04907 9.95385C4.09186 9.85406 4.15458 9.76414 4.23336 9.68946C4.31213 9.61485 4.40532 9.55706 4.50722 9.51964C4.60911 9.4823 4.71757 9.46611 4.82593 9.47211C5.87949 9.47211 5.60397 11.052 7.56921 11.052C8.57346 11.052 9.16407 10.4473 9.16407 9.87901C9.16407 9.5378 8.96922 9.14725 8.30614 8.99125L6.11171 8.43794C4.34881 7.98994 4.04193 7.00881 4.04193 6.09936C4.04193 4.21253 5.76823 3.52932 7.41166 3.52932C8.92588 3.52932 10.7254 4.36559 10.7254 5.4968C10.7211 5.60526 10.6945 5.71165 10.6469 5.80923C10.5994 5.90681 10.5321 5.99346 10.4493 6.06366C10.3666 6.13386 10.2701 6.1861 10.1661 6.21706C10.0621 6.24801 9.95275 6.25701 9.84507 6.24347C8.94909 6.24347 9.09838 4.9801 7.28772 4.9801C6.3917 4.9801 5.91533 5.40197 5.91533 5.99185C5.91533 6.58172 6.61496 6.78182 7.22948 6.91622L8.84828 7.28209C10.6231 7.68231 11.0965 8.72314 11.0965 9.72001C11.0965 11.2536 9.90925 12.4386 7.56846 12.4386M14.3631 9.19359C14.4333 8.79096 14.4683 8.38296 14.4677 7.97426C14.4716 6.96014 14.2529 5.95751 13.827 5.03717C13.4011 4.11681 12.7784 3.30117 12.0027 2.64782C11.2271 1.99447 10.3176 1.51934 9.33822 1.25595C8.35888 0.992577 7.33367 0.947376 6.33496 1.12355C5.71342 0.765755 5.00849 0.578254 4.29132 0.579968C3.56775 0.584198 2.8579 0.777778 2.23235 1.14145C1.60681 1.50513 1.08737 2.02623 0.725695 2.65293C0.364019 3.27964 0.172709 3.9901 0.170791 4.71368C0.168872 5.43726 0.356412 6.14873 0.71476 6.77734C0.514535 7.87731 0.583247 9.0094 0.915041 10.0771C1.24684 11.1447 1.83187 12.1163 2.62028 12.9091C3.40868 13.7018 4.37708 14.2922 5.44292 14.6297C6.50877 14.9674 7.64044 15.0423 8.74146 14.8481C9.36214 15.2055 10.066 15.393 10.7822 15.3917C11.505 15.387 12.2142 15.1934 12.8391 14.8299C13.464 14.4665 13.983 13.9459 14.3446 13.3199C14.7061 12.6939 14.8976 11.9841 14.9001 11.2612C14.9026 10.5383 14.716 9.8273 14.3587 9.1988" fill="white"/>
</g>
</g>
</g>
</g>
</g>
</g>
</g>
</g>
</g>
</g>
</g>
<defs>
<clipPath id="clip0_0_1">
<rect width="1440" height="6258" fill="white" transform="translate(-933 -2600)"/>
</clipPath>
<clipPath id="clip1_0_1">
<rect width="1026" height="379" fill="white" transform="translate(-725.5 -350.05)"/>
</clipPath>
<clipPath id="clip2_0_1">
<rect width="47.39" height="15" fill="white" transform="translate(0.159973 0.579956)"/>
</clipPath>
<clipPath id="clip3_0_1">
<rect width="47.39" height="15" fill="white" transform="translate(0.159973 0.579956)"/>
</clipPath>
<clipPath id="clip4_0_1">
<rect width="47.3684" height="15" fill="white" transform="translate(0.170776 0.579956)"/>
</clipPath>
</defs>
</svg>
