<svg width="60" height="16" viewBox="0 0 60 16" fill="none" xmlns="http://www.w3.org/2000/svg">
<rect width="60" height="16" fill="#6B6B6B"/>
<g id="Home" clip-path="url(#clip0_0_1)">
<rect width="1440" height="6258" transform="translate(-921 -2355)" fill="white"/>
<g id="Section">
<g id="::before">
<g id="dt-dotted-lines-process.svg fill">
<g id="dt-dotted-lines-process.svg" clip-path="url(#clip1_0_1)">
<path id="Vector" d="M295.5 -104.05H-696.5C-705.337 -104.05 -712.5 -96.8866 -712.5 -88.05V256.95C-712.5 265.786 -705.337 272.95 -696.5 272.95H295.5C304.337 272.95 311.5 265.786 311.5 256.95V-88.05C311.5 -96.8866 304.337 -104.05 295.5 -104.05Z" stroke="#092370" stroke-width="0.5" stroke-linecap="round" stroke-dasharray="5 5"/>
</g>
</g>
</g>
<g id="div.card">
<rect x="-484.95" y="-21.55" width="569" height="93" rx="15.5" fill="#092370"/>
<rect x="-484.95" y="-21.55" width="569" height="93" rx="15.5" stroke="#E6E6E6"/>
<g id="div.dt1-card-img">
<g id="span.h2d-df08b787">
<g id="dt-slack-icon.svg" clip-path="url(#clip2_0_1)">
<g id="dt-slack-icon.svg fill" clip-path="url(#clip3_0_1)">
<g id="dt-slack-icon.svg_2" clip-path="url(#clip4_0_1)">
<g id="Clip path group">
<mask id="mask0_0_1" style="mask-type:luminance" maskUnits="userSpaceOnUse" x="0" y="0" width="59" height="15">
<g id="clip0_5319_21272">
<path id="Vector_2" d="M58.891 0.0799561H0.549988V14.8414H58.891V0.0799561Z" fill="white"/>
</g>
</mask>
<g mask="url(#mask0_0_1)">
<g id="Group">
<path id="Vector_3" d="M19.224 11.704L19.9571 10.0113C20.7946 10.6047 21.7985 10.9175 22.8247 10.9049C23.5891 10.9049 24.0702 10.6107 24.0702 10.1644C24.0583 8.91886 19.498 9.89397 19.4631 6.76792C19.4512 5.18153 20.8617 3.95897 22.8595 3.95897C24.0099 3.91672 25.1421 4.25565 26.08 4.92309L25.3981 6.65062C24.607 6.12928 23.6873 5.83655 22.7404 5.80472C22.1172 5.80472 21.7057 6.09891 21.7057 6.47466C21.7176 7.69722 26.3128 7.02453 26.3595 10.0122C26.3595 11.6344 24.9848 12.7745 23.0098 12.7745C21.6678 12.8216 20.3446 12.4476 19.2258 11.7049" fill="white"/>
<path id="Vector_4" d="M47.184 9.40038C46.9554 9.80639 46.5987 10.1253 46.1696 10.307C45.7406 10.4888 45.2634 10.5233 44.8127 10.4051C44.362 10.287 43.9631 10.0227 43.6785 9.65382C43.3938 9.28492 43.2394 8.8321 43.2394 8.36615C43.2394 7.90019 43.3938 7.44737 43.6785 7.07847C43.9631 6.70957 44.362 6.44538 44.8127 6.32721C45.2634 6.20903 45.7406 6.24353 46.1696 6.42531C46.5987 6.60709 46.9554 6.92591 47.184 7.33192L49.1938 6.21568C48.7178 5.36435 47.9728 4.69498 47.0755 4.31244C46.1783 3.92991 45.1795 3.85582 44.2357 4.10178C43.2918 4.34774 42.4562 4.89986 41.8598 5.67163C41.2634 6.44341 40.9398 7.39123 40.9398 8.36661C40.9398 9.34199 41.2634 10.2899 41.8598 11.0616C42.4562 11.8334 43.2918 12.3855 44.2357 12.6315C45.1795 12.8774 46.1783 12.8034 47.0755 12.4208C47.9728 12.0383 48.7178 11.3689 49.1938 10.5176L47.184 9.40038Z" fill="white"/>
<path id="Vector_5" d="M29.8866 0.303589H27.3718V12.609H29.8866V0.303589Z" fill="white"/>
<path id="Vector_6" d="M50.1832 0.303589V12.609H52.698V8.91833L55.6829 12.609H58.9033L55.1073 8.22548L58.621 4.13532H55.5417L52.7007 7.53172V0.303589H50.1832Z" fill="white"/>
<path id="Vector_7" d="M37.3545 9.42356C37.1408 9.74741 36.8493 10.0125 36.5067 10.1946C36.1641 10.3766 35.7812 10.4698 35.3933 10.4656C35.1059 10.4836 34.8179 10.4426 34.5471 10.345C34.2762 10.2474 34.0282 10.0954 33.8183 9.8982C33.6085 9.70108 33.4412 9.46308 33.3269 9.19884C33.2126 8.9346 33.1536 8.64975 33.1536 8.36184C33.1536 8.07393 33.2126 7.78907 33.3269 7.52484C33.4412 7.2606 33.6085 7.02258 33.8183 6.82546C34.0282 6.62835 34.2762 6.47631 34.5471 6.37873C34.8179 6.28115 35.1059 6.2401 35.3933 6.2581C35.7852 6.25792 36.1708 6.35699 36.514 6.54609C36.8573 6.73519 37.147 7.00816 37.3563 7.33953L37.3545 9.42356ZM37.3545 4.13465V5.13361C37.0642 4.74889 36.6844 4.44081 36.2481 4.23608C35.8118 4.03134 35.3322 3.93613 34.8507 3.9587C33.7653 4.07808 32.7621 4.59382 32.0333 5.4071C31.3046 6.22038 30.9016 7.27396 30.9016 8.36596C30.9016 9.45795 31.3046 10.5116 32.0333 11.3249C32.7621 12.1381 33.7653 12.6539 34.8507 12.7733C35.3322 12.7958 35.8118 12.7006 36.2481 12.4959C36.6844 12.2911 37.0642 11.9831 37.3545 11.5984V12.5973H39.8693V4.13465H37.3545Z" fill="white"/>
<path id="Vector_8" d="M3.67595 9.41228C3.67595 9.71916 3.58496 10.0191 3.41447 10.2743C3.24398 10.5295 3.00166 10.7284 2.71815 10.8458C2.43463 10.9632 2.12267 10.994 1.82169 10.9341C1.52071 10.8742 1.24425 10.7264 1.02726 10.5094C0.810269 10.2925 0.662497 10.016 0.602629 9.71498C0.542761 9.41401 0.573486 9.10205 0.690921 8.81853C0.808356 8.53502 1.00722 8.2927 1.26238 8.12221C1.51753 7.95172 1.81751 7.86072 2.12438 7.86072H3.67595V9.41228Z" fill="white"/>
<path id="Vector_9" d="M4.45349 9.41228C4.45349 9.00078 4.61696 8.60614 4.90793 8.31516C5.19891 8.02419 5.59355 7.86072 6.00506 7.86072C6.41656 7.86072 6.81121 8.02419 7.10218 8.31516C7.39316 8.60614 7.55663 9.00078 7.55663 9.41228V13.2908C7.55663 13.7023 7.39316 14.0969 7.10218 14.3879C6.81121 14.6789 6.41656 14.8424 6.00506 14.8424C5.59355 14.8424 5.19891 14.6789 4.90793 14.3879C4.61696 14.0969 4.45349 13.7023 4.45349 13.2908V9.41228Z" fill="white"/>
<path id="Vector_10" d="M6.00317 3.1831C5.6963 3.1831 5.39632 3.0921 5.14117 2.92161C4.88602 2.75112 4.68714 2.5088 4.56971 2.22529C4.45228 1.94177 4.42155 1.62981 4.48141 1.32883C4.54128 1.02785 4.68906 0.751391 4.90605 0.5344C5.12304 0.317409 5.3995 0.169638 5.70048 0.10977C6.00145 0.0499024 6.31342 0.0806275 6.59693 0.198062C6.88045 0.315497 7.12277 0.514368 7.29326 0.769522C7.46375 1.02468 7.55474 1.32466 7.55474 1.63153V3.1831H6.00317Z" fill="white"/>
<path id="Vector_11" d="M6.00579 3.97058C6.41729 3.97058 6.81194 4.13406 7.10291 4.42503C7.39389 4.71601 7.55736 5.11065 7.55736 5.52215C7.55736 5.93366 7.39389 6.32831 7.10291 6.61928C6.81194 6.91026 6.41729 7.07372 6.00579 7.07372H2.11541C1.70391 7.07372 1.30926 6.91026 1.01829 6.61928C0.727312 6.32831 0.563843 5.93366 0.563843 5.52215C0.563843 5.11065 0.727312 4.71601 1.01829 4.42503C1.30926 4.13406 1.70391 3.97058 2.11541 3.97058H6.00579Z" fill="white"/>
<path id="Vector_12" d="M12.2203 5.52215C12.2203 5.21528 12.3113 4.91531 12.4818 4.66015C12.6523 4.405 12.8946 4.20613 13.1781 4.08869C13.4616 3.97126 13.7736 3.94053 14.0746 4.0004C14.3755 4.06027 14.652 4.20804 14.869 4.42503C15.086 4.64202 15.2337 4.91849 15.2936 5.21946C15.3535 5.52044 15.3228 5.83241 15.2053 6.11592C15.0879 6.39943 14.889 6.64175 14.6339 6.81223C14.3787 6.98272 14.0787 7.07372 13.7719 7.07372H12.2203V5.52215Z" fill="white"/>
<path id="Vector_13" d="M11.4428 5.52191C11.4428 5.93341 11.2793 6.32806 10.9883 6.61903C10.6973 6.91001 10.3027 7.07348 9.89118 7.07348C9.47968 7.07348 9.08503 6.91001 8.79406 6.61903C8.50308 6.32806 8.3396 5.93341 8.3396 5.52191V1.63153C8.3396 1.22003 8.50308 0.825376 8.79406 0.5344C9.08503 0.243425 9.47968 0.0799561 9.89118 0.0799561C10.3027 0.0799561 10.6973 0.243425 10.9883 0.5344C11.2793 0.825376 11.4428 1.22003 11.4428 1.63153V5.52191Z" fill="white"/>
<path id="Vector_14" d="M9.89118 11.7386C10.1981 11.7386 10.498 11.8296 10.7532 12.0001C11.0083 12.1706 11.2072 12.4129 11.3247 12.6964C11.4421 12.9799 11.4728 13.2919 11.4129 13.5929C11.3531 13.8938 11.2053 14.1703 10.9883 14.3873C10.7713 14.6043 10.4949 14.752 10.1939 14.8119C9.8929 14.8718 9.58093 14.8411 9.29741 14.7236C9.0139 14.6062 8.77158 14.4073 8.60109 14.1522C8.4306 13.897 8.3396 13.597 8.3396 13.2902V11.7386H9.89118Z" fill="white"/>
<path id="Vector_15" d="M9.89118 10.9639C9.47968 10.9639 9.08503 10.8004 8.79406 10.5094C8.50308 10.2185 8.3396 9.82379 8.3396 9.41228C8.3396 9.00078 8.50308 8.60614 8.79406 8.31516C9.08503 8.02419 9.47968 7.86072 9.89118 7.86072H13.7816C14.1931 7.86072 14.5877 8.02419 14.8787 8.31516C15.1697 8.60614 15.3331 9.00078 15.3331 9.41228C15.3331 9.82379 15.1697 10.2185 14.8787 10.5094C14.5877 10.8004 14.1931 10.9639 13.7816 10.9639H9.89118Z" fill="white"/>
</g>
</g>
</g>
</g>
</g>
</g>
</g>
</g>
</g>
</g>
</g>
<defs>
<clipPath id="clip0_0_1">
<rect width="1440" height="6258" fill="white" transform="translate(-921 -2355)"/>
</clipPath>
<clipPath id="clip1_0_1">
<rect width="1026" height="379" fill="white" transform="translate(-713.5 -105.05)"/>
</clipPath>
<clipPath id="clip2_0_1">
<rect width="59" height="15" fill="white" transform="translate(0.549988 0.0799561)"/>
</clipPath>
<clipPath id="clip3_0_1">
<rect width="59" height="15" fill="white" transform="translate(0.549988 0.0799561)"/>
</clipPath>
<clipPath id="clip4_0_1">
<rect width="59" height="15" fill="white" transform="translate(0.549988 0.0799561)"/>
</clipPath>
</defs>
</svg>
