<svg width="58" height="14" viewBox="0 0 58 14" fill="none" xmlns="http://www.w3.org/2000/svg">
<rect width="58" height="14" fill="#6B6B6B"/>
<g id="Home" clip-path="url(#clip0_0_1)">
<rect width="1440" height="6258" transform="translate(-915 -2511)" fill="white"/>
<g id="Section">
<g id="::before">
<g id="dt-dotted-lines-process.svg fill">
<g id="dt-dotted-lines-process.svg" clip-path="url(#clip1_0_1)">
<path id="Vector" d="M301.5 -260.05H-690.5C-699.337 -260.05 -706.5 -252.887 -706.5 -244.05V100.95C-706.5 109.786 -699.337 116.95 -690.5 116.95H301.5C310.337 116.95 317.5 109.786 317.5 100.95V-244.05C317.5 -252.887 310.337 -260.05 301.5 -260.05Z" stroke="#092370" stroke-width="0.5" stroke-linecap="round" stroke-dasharray="5 5"/>
</g>
</g>
</g>
<g id="div.card">
<rect x="-478.95" y="-58.55" width="569" height="93" rx="15.5" fill="#092370"/>
<rect x="-478.95" y="-58.55" width="569" height="93" rx="15.5" stroke="#E6E6E6"/>
<g id="div.dt1-card-img">
<g id="span.h2d-c64eabdb">
<g id="dt-zoom-meeting-icon.svg" clip-path="url(#clip2_0_1)">
<g id="dt-zoom-meeting-icon.svg fill" clip-path="url(#clip3_0_1)">
<g id="dt-zoom-meeting-icon.svg_2" clip-path="url(#clip4_0_1)">
<g id="Clip path group">
<mask id="mask0_0_1" style="mask-type:luminance" maskUnits="userSpaceOnUse" x="0" y="0" width="58" height="13">
<g id="clip0_5319_21312">
<path id="Vector_2" d="M57.1791 0.098999H0.727844V12.8461H57.1791V0.098999Z" fill="white"/>
</g>
</mask>
<g mask="url(#mask0_0_1)">
<g id="Group">
<path id="Vector_3" d="M50.806 12.8461C54.326 12.8461 57.1795 9.99254 57.1795 6.47254C57.1795 2.95253 54.326 0.098999 50.806 0.098999C47.286 0.098999 44.4324 2.95253 44.4324 6.47254C44.4324 9.99254 47.286 12.8461 50.806 12.8461Z" fill="#092370"/>
<path id="Vector_4" d="M46.9434 4.46472V8.05301C46.9426 8.1811 46.967 8.30808 47.0154 8.42668C47.0638 8.54528 47.1351 8.65315 47.2253 8.7441C47.3155 8.83505 47.4228 8.90728 47.5409 8.95666C47.6591 9.00603 47.7859 9.03157 47.914 9.03181H52.4237V5.44351C52.4267 5.31644 52.4044 5.19004 52.358 5.07171C52.3116 4.95338 52.2421 4.84549 52.1535 4.75435C52.0649 4.66322 51.959 4.59066 51.842 4.54093C51.7251 4.49119 51.5993 4.46528 51.4722 4.46472H46.9434ZM54.7064 4.46472L52.8799 5.60649V7.89003L54.7064 9.03181V4.46472Z" fill="white"/>
<path id="Vector_5" fill-rule="evenodd" clip-rule="evenodd" d="M16.3697 4.62946C16.7641 5.02436 17.0325 5.5273 17.1411 6.07472C17.2497 6.62214 17.1936 7.18947 16.9799 7.705C16.7661 8.22054 16.4043 8.66114 15.9403 8.97112C15.4762 9.2811 14.9306 9.44654 14.3725 9.44654C13.8144 9.44654 13.2688 9.2811 12.8048 8.97112C12.3407 8.66114 11.9789 8.22054 11.7651 7.705C11.5514 7.18947 11.4953 6.62214 11.6039 6.07472C11.7125 5.5273 11.9809 5.02436 12.3753 4.62946C12.6375 4.36696 12.9488 4.15872 13.2915 4.01663C13.6342 3.87455 14.0015 3.80142 14.3725 3.80142C14.7435 3.80142 15.1108 3.87455 15.4535 4.01663C15.7962 4.15872 16.1075 4.36696 16.3697 4.62946ZM14.3802 1.9198C15.6285 1.92053 16.8253 2.41699 17.7075 3.3C18.5898 4.183 19.0852 5.38025 19.0848 6.62847C19.0844 7.87669 18.5884 9.07368 17.7056 9.95617C16.8229 10.8387 15.6257 11.3345 14.3775 11.3345C13.1293 11.3345 11.9322 10.8387 11.0494 9.95617C10.1667 9.07368 9.67055 7.87669 9.67018 6.62847C9.66982 5.38025 10.1652 4.183 11.0475 3.3C11.9297 2.41699 13.1265 1.92053 14.3748 1.9198H14.3802ZM26.2587 4.62946C26.653 5.02436 26.9215 5.5273 27.0301 6.07472C27.1387 6.62214 27.0826 7.18947 26.8688 7.705C26.6551 8.22054 26.2933 8.66114 25.8292 8.97112C25.3651 9.2811 24.8196 9.44654 24.2615 9.44654C23.7034 9.44654 23.1578 9.2811 22.6938 8.97112C22.2297 8.66114 21.8679 8.22054 21.6541 7.705C21.4404 7.18947 21.3843 6.62214 21.4929 6.07472C21.6015 5.5273 21.8699 5.02436 22.2643 4.62946C22.7936 4.10043 23.5113 3.80324 24.2597 3.80324C25.008 3.80324 25.7257 4.10043 26.255 4.62946H26.2587ZM27.5898 3.29831C28.3595 4.06804 28.8386 5.08076 28.9455 6.16404C29.0524 7.24731 28.7805 8.33415 28.1761 9.23946C27.5717 10.1448 26.6721 10.8126 25.6306 11.1292C24.5891 11.4458 23.4701 11.3916 22.4641 10.9758C21.4581 10.5599 20.6274 9.80825 20.1133 8.84873C19.5993 7.88922 19.4337 6.78118 19.6449 5.71331C19.856 4.64545 20.4308 3.6838 21.2713 2.99211C22.1118 2.30042 23.1661 1.92147 24.2547 1.9198C25.5029 1.91992 26.6999 2.41577 27.5826 3.29831H27.5898ZM2.60922 11.3108L3.07995 11.3345H10.1409L10.1172 10.8646C10.1008 10.5016 9.94929 10.1578 9.69239 9.90067C9.43549 9.6436 9.09177 9.49184 8.72873 9.47518L8.258 9.4515H4.0214L9.66654 3.80638L9.64287 3.33655C9.63432 2.97089 9.48531 2.62257 9.22677 2.36386C8.96823 2.10515 8.62 1.95591 8.25436 1.94712L7.78363 1.92436H0.722656L0.74633 2.39417C0.76274 2.75708 0.914142 3.10077 1.17085 3.35782C1.42756 3.61487 1.77106 3.76672 2.13394 3.7836L2.60558 3.80728H6.84217L1.19703 9.4524L1.2207 9.92223C1.23333 10.2859 1.38319 10.6312 1.64012 10.8888C1.89705 11.1464 2.242 11.2972 2.60558 11.3108H2.60922ZM34.8302 4.74237C34.9821 5.03387 35.0612 5.35783 35.0605 5.68656L35.0842 6.1573V9.4524L35.1079 9.92223C35.1218 10.2863 35.2727 10.6317 35.5303 10.8893C35.7879 11.1469 36.1333 11.2977 36.4973 11.3117L36.9671 11.3354V6.1573L36.9908 5.68656C36.9909 5.35654 37.0705 5.0314 37.223 4.73872C37.3892 4.45386 37.6273 4.21764 37.9135 4.05367C38.1997 3.88971 38.5239 3.80376 38.8537 3.8044C39.1835 3.80505 39.5074 3.89227 39.7929 4.05736C40.0785 4.22244 40.3156 4.45959 40.4808 4.7451C40.6306 5.03633 40.7089 5.35904 40.7093 5.68656L40.733 6.15638V9.4515L40.7566 9.92131C40.7693 10.2858 40.9198 10.6319 41.1777 10.8898C41.4355 11.1476 41.7816 11.2981 42.1461 11.3108L42.6159 11.3345V5.68929C42.6159 4.92435 42.3831 4.17752 41.9482 3.5482C41.5133 2.91888 40.8971 2.43692 40.1816 2.16645C39.4661 1.89597 38.6851 1.84981 37.9427 2.03412C37.2003 2.21842 36.5316 2.62445 36.0257 3.19816C35.4202 2.5119 34.5855 2.06954 33.6777 1.95376C32.7699 1.83797 31.8509 2.05667 31.0926 2.56899C30.6332 2.16581 30.0465 1.93726 29.4354 1.92344V11.3372L29.9062 11.3135C30.2719 11.3054 30.6204 11.1565 30.879 10.8979C31.1377 10.6392 31.2866 10.2907 31.2947 9.92497L31.3184 9.45422V6.15912L31.342 5.68839C31.3422 5.35908 31.4215 5.03463 31.5733 4.74237C31.739 4.45719 31.9766 4.2205 32.2625 4.05598C32.5483 3.89146 32.8724 3.80486 33.2022 3.80486C33.532 3.80486 33.856 3.89146 34.1419 4.05598C34.4278 4.2205 34.6645 4.45719 34.8302 4.74237Z" fill="white"/>
</g>
</g>
</g>
</g>
</g>
</g>
</g>
</g>
</g>
</g>
</g>
<defs>
<clipPath id="clip0_0_1">
<rect width="1440" height="6258" fill="white" transform="translate(-915 -2511)"/>
</clipPath>
<clipPath id="clip1_0_1">
<rect width="1026" height="379" fill="white" transform="translate(-707.5 -261.05)"/>
</clipPath>
<clipPath id="clip2_0_1">
<rect width="57" height="13" fill="white" transform="translate(0.549988 0.0799561)"/>
</clipPath>
<clipPath id="clip3_0_1">
<rect width="57" height="13" fill="white" transform="translate(0.549988 0.0799561)"/>
</clipPath>
<clipPath id="clip4_0_1">
<rect width="57" height="13" fill="white" transform="translate(0.549988 0.0799561)"/>
</clipPath>
</defs>
</svg>
